<svg width="515" height="207" viewBox="0 0 515 207" fill="none" xmlns="http://www.w3.org/2000/svg">
<path d="M185.972 31.5911H500.694C508.266 31.5911 514.404 37.7295 514.404 45.301V67.9514C514.404 75.5229 508.266 81.6604 500.694 81.6604H185.972C178.401 81.6604 172.262 75.5229 172.262 67.9514V45.301C172.262 37.7295 178.401 31.5911 185.972 31.5911Z" fill="url(#paint0_linear_1946_1451)"/>
<path d="M185.972 31.5911H500.694C508.266 31.5911 514.404 37.7295 514.404 45.301V67.9514C514.404 75.5229 508.266 81.6604 500.694 81.6604H185.972C178.401 81.6604 172.262 75.5229 172.262 67.9514V45.301C172.262 37.7295 178.401 31.5911 185.972 31.5911Z" stroke="#171717" stroke-width="1.19213"/>
<path d="M181.204 49.449C181.204 44.1819 185.474 39.912 190.741 39.912H263.461C268.728 39.912 272.998 44.1819 272.998 49.449V64.375C272.998 69.6421 268.728 73.912 263.461 73.912H190.741C185.474 73.912 181.204 69.6421 181.204 64.375V49.449Z" fill="#0080FF"/>
<path d="M204.715 62.912V49.3694H209.579C211.092 49.3694 212.268 49.7318 213.107 50.4566C213.947 51.1814 214.366 52.186 214.366 53.4703C214.366 54.335 214.176 55.0853 213.794 55.7211C213.413 56.3441 212.866 56.821 212.154 57.1516C211.442 57.4822 210.583 57.6475 209.579 57.6475H206.355V62.912H204.715ZM206.355 56.0453H209.579C210.596 56.0453 211.359 55.8291 211.868 55.3968C212.389 54.9645 212.65 54.3223 212.65 53.4703C212.65 52.6438 212.389 52.0207 211.868 51.6011C211.359 51.1814 210.596 50.9716 209.579 50.9716H206.355V56.0453ZM222.218 63.2172C220.933 63.2172 219.827 62.9374 218.899 62.3779C217.983 61.8057 217.278 60.9919 216.782 59.9364C216.286 58.881 216.038 57.6221 216.038 56.1598C216.038 54.6974 216.286 53.4385 216.782 52.3831C217.278 51.3149 217.983 50.4948 218.899 49.9225C219.827 49.3503 220.933 49.0642 222.218 49.0642C223.515 49.0642 224.621 49.3503 225.537 49.9225C226.465 50.4948 227.177 51.3149 227.673 52.3831C228.169 53.4385 228.417 54.6974 228.417 56.1598C228.417 57.6221 228.169 58.881 227.673 59.9364C227.177 60.9919 226.465 61.8057 225.537 62.3779C224.621 62.9374 223.515 63.2172 222.218 63.2172ZM222.218 61.615C223.159 61.615 223.96 61.3988 224.621 60.9664C225.295 60.5341 225.81 59.911 226.166 59.0972C226.522 58.2833 226.7 57.3042 226.7 56.1598C226.7 55.0153 226.522 54.0362 226.166 53.2224C225.81 52.3958 225.295 51.7664 224.621 51.334C223.96 50.889 223.159 50.6664 222.218 50.6664C221.289 50.6664 220.488 50.889 219.814 51.334C219.153 51.7664 218.645 52.3958 218.288 53.2224C217.932 54.0362 217.754 55.0153 217.754 56.1598C217.754 57.3042 217.932 58.2833 218.288 59.0972C218.645 59.911 219.153 60.5341 219.814 60.9664C220.488 61.3988 221.289 61.615 222.218 61.615ZM235.689 63.2172C234.646 63.2172 233.737 63.0201 232.961 62.6259C232.186 62.2317 231.569 61.6912 231.111 61.0046C230.666 60.3052 230.405 59.4977 230.329 58.5822L232.046 58.4677C232.135 59.1417 232.332 59.7139 232.637 60.1844C232.942 60.6549 233.349 61.0109 233.858 61.2525C234.379 61.4941 235.002 61.615 235.727 61.615C236.363 61.615 236.903 61.5323 237.348 61.367C237.793 61.2017 238.13 60.9601 238.359 60.6422C238.601 60.3243 238.722 59.9364 238.722 59.4787C238.722 59.059 238.62 58.6903 238.417 58.3724C238.226 58.0417 237.851 57.7429 237.291 57.4759C236.744 57.1961 235.931 56.9227 234.85 56.6557C233.807 56.3887 232.974 56.0962 232.351 55.7783C231.741 55.4604 231.296 55.0725 231.016 54.6148C230.749 54.157 230.615 53.5911 230.615 52.9172C230.615 52.1542 230.793 51.4866 231.149 50.9144C231.518 50.3295 232.039 49.878 232.713 49.5601C233.387 49.2295 234.188 49.0642 235.117 49.0642C236.109 49.0642 236.961 49.255 237.673 49.6364C238.385 50.0052 238.951 50.5138 239.37 51.1624C239.79 51.8109 240.051 52.5484 240.152 53.375L238.436 53.4894C238.359 52.9426 238.181 52.4594 237.902 52.0398C237.635 51.6074 237.266 51.2704 236.795 51.0288C236.325 50.7872 235.753 50.6664 235.079 50.6664C234.239 50.6664 233.572 50.8699 233.076 51.2768C232.58 51.671 232.332 52.1924 232.332 52.8409C232.332 53.2605 232.427 53.6102 232.618 53.89C232.821 54.157 233.178 54.3986 233.686 54.6148C234.195 54.8182 234.926 55.0408 235.88 55.2824C237.011 55.5621 237.908 55.8991 238.569 56.2933C239.243 56.6748 239.72 57.1198 240 57.6285C240.292 58.1371 240.438 58.7157 240.438 59.3642C240.438 60.1526 240.235 60.8393 239.828 61.4242C239.421 61.9964 238.862 62.4415 238.15 62.7594C237.437 63.0646 236.617 63.2172 235.689 63.2172ZM245.161 62.912V50.9716H240.946V49.3694H251.017V50.9716H246.802V62.912H245.161Z" fill="white"/>
<path d="M286.979 65.0101L292.778 48.6064H294.303L288.505 65.0101H286.979ZM300.743 63.1409C300.107 63.1409 299.535 63.0264 299.026 62.7975C298.518 62.5687 298.117 62.2508 297.825 61.8438C297.532 61.4242 297.386 60.941 297.386 60.3942C297.386 59.5295 297.64 58.8619 298.149 58.3914C298.67 57.9082 299.484 57.5585 300.59 57.3424L303.986 56.6557C303.986 55.791 303.789 55.1488 303.394 54.7292C303.013 54.3096 302.46 54.0998 301.735 54.0998C301.036 54.0998 300.489 54.2587 300.095 54.5766C299.7 54.8818 299.427 55.3269 299.274 55.9118L297.577 55.7783C297.767 54.8246 298.219 54.0553 298.931 53.4703C299.656 52.8727 300.59 52.5738 301.735 52.5738C302.956 52.5738 303.903 52.9426 304.577 53.6801C305.251 54.405 305.588 55.4095 305.588 56.6938V60.8901C305.588 61.119 305.639 61.278 305.74 61.367C305.842 61.456 305.995 61.5005 306.198 61.5005H306.847V62.912C306.77 62.9247 306.65 62.9311 306.484 62.9311C306.319 62.9438 306.16 62.9501 306.007 62.9501C305.575 62.9501 305.206 62.8802 304.901 62.7403C304.609 62.6004 304.386 62.3779 304.234 62.0727C304.081 61.7548 303.998 61.3479 303.986 60.852H304.291C304.202 61.2843 303.986 61.6785 303.642 62.0346C303.312 62.3779 302.892 62.6513 302.383 62.8548C301.875 63.0455 301.328 63.1409 300.743 63.1409ZM300.896 61.7294C301.582 61.7294 302.155 61.615 302.612 61.3861C303.07 61.1445 303.413 60.8138 303.642 60.3942C303.871 59.9619 303.986 59.4659 303.986 58.9064V58.029L300.896 58.6394C300.209 58.7666 299.732 58.9637 299.465 59.2307C299.198 59.485 299.065 59.822 299.065 60.2416C299.065 60.7121 299.223 61.0809 299.541 61.3479C299.872 61.6022 300.323 61.7294 300.896 61.7294ZM309.319 65.7731V52.8027H310.807L310.845 55.0916L310.616 54.9772C310.87 54.1888 311.29 53.5911 311.875 53.1842C312.472 52.7773 313.159 52.5738 313.935 52.5738C314.939 52.5738 315.76 52.8218 316.395 53.3177C317.044 53.8137 317.521 54.4622 317.826 55.2633C318.131 56.0644 318.284 56.9291 318.284 57.8574C318.284 58.7856 318.131 59.6503 317.826 60.4514C317.521 61.2525 317.044 61.9011 316.395 62.397C315.76 62.8929 314.939 63.1409 313.935 63.1409C313.413 63.1409 312.924 63.0519 312.466 62.8738C312.021 62.6958 311.64 62.4479 311.322 62.13C311.017 61.812 310.807 61.4369 310.692 61.0046L310.921 60.7375V65.7731H309.319ZM313.782 61.615C314.66 61.615 315.346 61.2843 315.842 60.6231C316.351 59.9619 316.605 59.04 316.605 57.8574C316.605 56.6748 316.351 55.7529 315.842 55.0916C315.346 54.4304 314.66 54.0998 313.782 54.0998C313.197 54.0998 312.689 54.2396 312.256 54.5194C311.837 54.7991 311.506 55.2188 311.264 55.7783C311.036 56.3378 310.921 57.0308 310.921 57.8574C310.921 58.6839 311.036 59.3769 311.264 59.9364C311.493 60.4959 311.824 60.9156 312.256 61.1953C312.689 61.4751 313.197 61.615 313.782 61.615ZM324.819 62.912V52.8027H326.421V62.912H324.819ZM320.756 62.912V61.5005H329.911V62.912H320.756ZM320.947 54.2142V52.8027H326.421V54.2142H320.947ZM324.666 51.2196V49.3503H326.345V51.2196H324.666ZM332.727 65.0101L338.525 48.6064H340.051L334.253 65.0101H332.727ZM346.815 62.912L343.058 52.8027H344.812L347.826 61.2716L350.84 52.8027H352.595L348.837 62.912H346.815ZM358.958 62.912V52.879H355.41V51.4675H357.241C357.725 51.4675 358.112 51.3976 358.405 51.2577C358.71 51.1179 358.926 50.8953 359.053 50.5901C359.193 50.285 359.263 49.878 359.263 49.3694H360.598V62.912H358.958ZM354.685 62.912V61.3098H363.841V62.912H354.685ZM367.038 65.0101L372.836 48.6064H374.362L368.564 65.0101H367.038ZM380.802 63.1409C380.166 63.1409 379.594 63.0264 379.085 62.7975C378.577 62.5687 378.176 62.2508 377.884 61.8438C377.591 61.4242 377.445 60.941 377.445 60.3942C377.445 59.5295 377.699 58.8619 378.208 58.3914C378.729 57.9082 379.543 57.5585 380.649 57.3424L384.045 56.6557C384.045 55.791 383.847 55.1488 383.453 54.7292C383.072 54.3096 382.519 54.0998 381.794 54.0998C381.094 54.0998 380.548 54.2587 380.153 54.5766C379.759 54.8818 379.486 55.3269 379.333 55.9118L377.636 55.7783C377.826 54.8246 378.278 54.0553 378.99 53.4703C379.715 52.8727 380.649 52.5738 381.794 52.5738C383.015 52.5738 383.962 52.9426 384.636 53.6801C385.31 54.405 385.647 55.4095 385.647 56.6938V60.8901C385.647 61.119 385.698 61.278 385.799 61.367C385.901 61.456 386.054 61.5005 386.257 61.5005H386.906V62.912C386.829 62.9247 386.709 62.9311 386.543 62.9311C386.378 62.9438 386.219 62.9501 386.066 62.9501C385.634 62.9501 385.265 62.8802 384.96 62.7403C384.668 62.6004 384.445 62.3779 384.293 62.0727C384.14 61.7548 384.057 61.3479 384.045 60.852H384.35C384.261 61.2843 384.045 61.6785 383.701 62.0346C383.371 62.3779 382.951 62.6513 382.442 62.8548C381.934 63.0455 381.387 63.1409 380.802 63.1409ZM380.955 61.7294C381.641 61.7294 382.213 61.615 382.671 61.3861C383.129 61.1445 383.472 60.8138 383.701 60.3942C383.93 59.9619 384.045 59.4659 384.045 58.9064V58.029L380.955 58.6394C380.268 58.7666 379.791 58.9637 379.524 59.2307C379.257 59.485 379.123 59.822 379.123 60.2416C379.123 60.7121 379.282 61.0809 379.6 61.3479C379.931 61.6022 380.382 61.7294 380.955 61.7294ZM392.868 63.1409C391.864 63.1409 391.063 62.8039 390.465 62.13C389.867 61.4433 389.569 60.5023 389.569 59.307V52.8027H391.171V58.8683C391.171 59.8474 391.343 60.5722 391.686 61.0427C392.042 61.5005 392.582 61.7294 393.307 61.7294C394.096 61.7294 394.719 61.4751 395.176 60.9664C395.634 60.4451 395.863 59.733 395.863 58.8301V52.8027H397.465V62.912H395.939V60.4133L396.187 60.5468C395.984 61.3733 395.596 62.0155 395.024 62.4733C394.452 62.9183 393.733 63.1409 392.868 63.1409ZM406.499 62.912C405.52 62.912 404.789 62.6831 404.305 62.2253C403.822 61.7675 403.581 61.0682 403.581 60.1272V50.4375H405.183V60.1272C405.183 60.5977 405.291 60.9474 405.507 61.1762C405.723 61.3924 406.054 61.5005 406.499 61.5005H409.207V62.912H406.499ZM400.243 54.2142V52.8027H409.207V54.2142H400.243ZM412.633 62.912V49.3694H414.236V55.0344L414.045 54.9962C414.172 54.4367 414.388 53.979 414.693 53.6229C414.999 53.2669 415.374 53.0062 415.819 52.8409C416.264 52.6629 416.747 52.5738 417.268 52.5738C417.993 52.5738 418.604 52.7391 419.099 53.0698C419.608 53.3877 419.99 53.8391 420.244 54.424C420.511 54.9962 420.644 55.6575 420.644 56.4077V62.912H419.042V56.8655C419.042 55.8864 418.864 55.1616 418.508 54.6911C418.165 54.2206 417.637 53.9853 416.925 53.9853C416.111 53.9853 415.456 54.2333 414.96 54.7292C414.477 55.2251 414.236 55.9436 414.236 56.8846V62.912H412.633ZM424.223 65.0101L430.021 48.6064H431.547L425.749 65.0101H424.223ZM438.807 62.912V52.0779C438.807 51.671 438.693 51.3531 438.464 51.1242C438.235 50.8953 437.917 50.7809 437.51 50.7809H435.126V49.3694H437.586C438.515 49.3694 439.214 49.611 439.685 50.0942C440.168 50.5647 440.409 51.2641 440.409 52.1924V62.912H438.807ZM434.744 62.912V61.5005H443.9V62.912H434.744ZM450.759 63.1409C449.831 63.1409 449.017 62.9247 448.318 62.4924C447.631 62.06 447.097 61.4496 446.715 60.6612C446.334 59.8601 446.143 58.9255 446.143 57.8574C446.143 56.7765 446.334 55.8419 446.715 55.0535C447.097 54.2651 447.631 53.6547 448.318 53.2224C449.017 52.79 449.831 52.5738 450.759 52.5738C451.687 52.5738 452.495 52.79 453.182 53.2224C453.881 53.6547 454.421 54.2651 454.803 55.0535C455.184 55.8419 455.375 56.7765 455.375 57.8574C455.375 58.9255 455.184 59.8601 454.803 60.6612C454.421 61.4496 453.881 62.06 453.182 62.4924C452.495 62.9247 451.687 63.1409 450.759 63.1409ZM450.759 61.615C451.687 61.615 452.406 61.2843 452.915 60.6231C453.436 59.9491 453.697 59.0272 453.697 57.8574C453.697 56.6875 453.436 55.7719 452.915 55.1107C452.406 54.4367 451.687 54.0998 450.759 54.0998C449.831 54.0998 449.106 54.4367 448.585 55.1107C448.076 55.7719 447.822 56.6875 447.822 57.8574C447.822 59.0272 448.076 59.9491 448.585 60.6231C449.106 61.2843 449.831 61.615 450.759 61.615ZM462.139 66.002C461.414 66.002 460.759 65.8812 460.174 65.6396C459.589 65.398 459.1 65.0546 458.706 64.6096C458.311 64.1645 458.044 63.6495 457.904 63.0646L459.583 62.9501C459.736 63.4206 460.003 63.7894 460.384 64.0564C460.778 64.3362 461.363 64.4761 462.139 64.4761C463.054 64.4761 463.754 64.2917 464.237 63.9229C464.733 63.5541 464.981 63.001 464.981 62.2635V60.6231C464.739 61.1572 464.352 61.5832 463.817 61.9011C463.283 62.219 462.686 62.3779 462.024 62.3779C461.172 62.3779 460.41 62.1681 459.736 61.7485C459.074 61.3288 458.553 60.7503 458.172 60.0127C457.803 59.2752 457.618 58.4296 457.618 57.4759C457.618 56.5095 457.803 55.6638 458.172 54.939C458.54 54.2015 459.049 53.6229 459.697 53.2033C460.359 52.7837 461.109 52.5738 461.948 52.5738C462.66 52.5738 463.296 52.7391 463.856 53.0698C464.428 53.4004 464.828 53.8454 465.057 54.405V52.8027H466.583V62.2253C466.583 63.0137 466.405 63.6877 466.049 64.2472C465.693 64.8194 465.184 65.2517 464.523 65.5442C463.862 65.8494 463.067 66.002 462.139 66.002ZM462.101 60.852C462.965 60.852 463.658 60.5532 464.18 59.9555C464.701 59.3451 464.968 58.5186 464.981 57.4759C464.994 56.7765 464.879 56.1788 464.638 55.6829C464.409 55.1743 464.072 54.7864 463.627 54.5194C463.194 54.2396 462.686 54.0998 462.101 54.0998C461.211 54.0998 460.518 54.405 460.022 55.0153C459.538 55.613 459.297 56.4332 459.297 57.4759C459.297 58.5186 459.545 59.3451 460.041 59.9555C460.549 60.5532 461.236 60.852 462.101 60.852ZM473.5 62.912V52.8027H475.102V62.912H473.5ZM469.437 62.912V61.5005H478.592V62.912H469.437ZM469.628 54.2142V52.8027H475.102V54.2142H469.628ZM473.347 51.2196V49.3503H475.026V51.2196H473.347ZM480.95 62.912V52.8027H482.419L482.476 55.3777L482.285 55.2061C482.412 54.6084 482.641 54.1188 482.972 53.7374C483.315 53.3432 483.722 53.0507 484.193 52.86C484.663 52.6692 485.159 52.5738 485.68 52.5738C486.456 52.5738 487.098 52.7455 487.607 53.0888C488.128 53.4322 488.523 53.8963 488.79 54.4812C489.057 55.0535 489.19 55.6956 489.19 56.4077V62.912H487.588V56.8655C487.588 55.9245 487.404 55.2124 487.035 54.7292C486.666 54.2333 486.1 53.9853 485.337 53.9853C484.816 53.9853 484.345 54.0998 483.926 54.3287C483.506 54.5448 483.169 54.8691 482.915 55.3014C482.673 55.7211 482.552 56.2424 482.552 56.8655V62.912H480.95Z" fill="white"/>
<path d="M185.972 93.5818H500.694C508.266 93.5818 514.404 99.7202 514.404 107.292V129.942C514.404 137.514 508.266 143.651 500.694 143.651H185.972C178.401 143.651 172.262 137.514 172.262 129.942V107.292C172.262 99.7202 178.401 93.5818 185.972 93.5818Z" fill="url(#paint1_linear_1946_1451)"/>
<path d="M185.972 93.5818H500.694C508.266 93.5818 514.404 99.7202 514.404 107.292V129.942C514.404 137.514 508.266 143.651 500.694 143.651H185.972C178.401 143.651 172.262 137.514 172.262 129.942V107.292C172.262 99.7202 178.401 93.5818 185.972 93.5818Z" stroke="#47FF53" stroke-width="1.19213"/>
<path d="M181.204 110.868C181.204 105.601 185.474 101.331 190.741 101.331H263.461C268.728 101.331 272.998 105.601 272.998 110.868V126.366C272.998 131.633 268.728 135.903 263.461 135.903H190.741C185.474 135.903 181.204 131.633 181.204 126.366V110.868Z" fill="#47FF53"/>
<path d="M216.319 125.636C215.048 125.636 213.96 125.331 213.057 124.721C212.155 124.11 211.462 123.277 210.978 122.222C210.508 121.154 210.273 119.939 210.273 118.579C210.273 117.218 210.514 116.004 210.997 114.936C211.481 113.868 212.174 113.028 213.077 112.418C213.992 111.795 215.086 111.483 216.357 111.483C217.438 111.483 218.347 111.68 219.085 112.075C219.835 112.469 220.426 113.003 220.859 113.677C221.304 114.351 221.609 115.107 221.774 115.947L220.058 116.061C219.892 115.184 219.524 114.472 218.951 113.925C218.379 113.365 217.514 113.085 216.357 113.085C215.327 113.085 214.488 113.34 213.839 113.848C213.204 114.357 212.733 115.031 212.428 115.87C212.136 116.697 211.989 117.6 211.989 118.579C211.989 119.609 212.142 120.537 212.447 121.364C212.752 122.177 213.229 122.826 213.878 123.309C214.526 123.792 215.353 124.034 216.357 124.034C217.158 124.034 217.851 123.856 218.436 123.5C219.021 123.131 219.473 122.642 219.791 122.031C220.109 121.421 220.274 120.76 220.287 120.048H216.395V118.483H221.812V125.331H220.592L220.477 122.203L220.706 122.47C220.554 123.08 220.261 123.627 219.829 124.11C219.396 124.581 218.875 124.956 218.265 125.236C217.667 125.503 217.019 125.636 216.319 125.636ZM224.525 125.331V111.788H233.032V113.391H226.165V117.759H232.803V119.323H226.165V123.729H233.184V125.331H224.525ZM238.707 125.331V113.391H234.492V111.788H244.563V113.391H240.347V125.331H238.707Z" fill="black"/>
<path d="M286.979 127.001L292.778 110.597H294.303L288.505 127.001H286.979ZM300.743 125.132C300.107 125.132 299.535 125.017 299.026 124.788C298.518 124.559 298.117 124.241 297.825 123.835C297.532 123.415 297.386 122.932 297.386 122.385C297.386 121.52 297.64 120.853 298.149 120.382C298.67 119.899 299.484 119.549 300.59 119.333L303.986 118.646C303.986 117.782 303.789 117.14 303.394 116.72C303.013 116.3 302.46 116.09 301.735 116.09C301.036 116.09 300.489 116.249 300.095 116.567C299.7 116.873 299.427 117.318 299.274 117.903L297.577 117.769C297.767 116.815 298.219 116.046 298.931 115.461C299.656 114.863 300.59 114.565 301.735 114.565C302.956 114.565 303.903 114.933 304.577 115.671C305.251 116.396 305.588 117.4 305.588 118.685V122.881C305.588 123.11 305.639 123.269 305.74 123.358C305.842 123.447 305.995 123.491 306.198 123.491H306.847V124.903C306.77 124.915 306.65 124.922 306.484 124.922C306.319 124.935 306.16 124.941 306.007 124.941C305.575 124.941 305.206 124.871 304.901 124.731C304.609 124.591 304.386 124.369 304.234 124.063C304.081 123.746 303.998 123.339 303.986 122.843H304.291C304.202 123.275 303.986 123.669 303.642 124.025C303.312 124.369 302.892 124.642 302.383 124.845C301.875 125.036 301.328 125.132 300.743 125.132ZM300.896 123.72C301.582 123.72 302.155 123.606 302.612 123.377C303.07 123.135 303.413 122.805 303.642 122.385C303.871 121.953 303.986 121.457 303.986 120.897V120.02L300.896 120.63C300.209 120.757 299.732 120.954 299.465 121.221C299.198 121.476 299.065 121.813 299.065 122.232C299.065 122.703 299.223 123.072 299.541 123.339C299.872 123.593 300.323 123.72 300.896 123.72ZM309.319 127.764V114.793H310.807L310.845 117.082L310.616 116.968C310.87 116.179 311.29 115.582 311.875 115.175C312.472 114.768 313.159 114.565 313.935 114.565C314.939 114.565 315.76 114.813 316.395 115.308C317.044 115.804 317.521 116.453 317.826 117.254C318.131 118.055 318.284 118.92 318.284 119.848C318.284 120.776 318.131 121.641 317.826 122.442C317.521 123.243 317.044 123.892 316.395 124.388C315.76 124.884 314.939 125.132 313.935 125.132C313.413 125.132 312.924 125.043 312.466 124.865C312.021 124.687 311.64 124.439 311.322 124.121C311.017 123.803 310.807 123.428 310.692 122.995L310.921 122.728V127.764H309.319ZM313.782 123.606C314.66 123.606 315.346 123.275 315.842 122.614C316.351 121.953 316.605 121.031 316.605 119.848C316.605 118.665 316.351 117.744 315.842 117.082C315.346 116.421 314.66 116.09 313.782 116.09C313.197 116.09 312.689 116.23 312.256 116.51C311.837 116.79 311.506 117.209 311.264 117.769C311.036 118.329 310.921 119.022 310.921 119.848C310.921 120.675 311.036 121.368 311.264 121.927C311.493 122.487 311.824 122.906 312.256 123.186C312.689 123.466 313.197 123.606 313.782 123.606ZM324.819 124.903V114.793H326.421V124.903H324.819ZM320.756 124.903V123.491H329.911V124.903H320.756ZM320.947 116.205V114.793H326.421V116.205H320.947ZM324.666 113.21V111.341H326.345V113.21H324.666ZM332.727 127.001L338.525 110.597H340.051L334.253 127.001H332.727ZM346.815 124.903L343.058 114.793H344.812L347.826 123.262L350.84 114.793H352.595L348.837 124.903H346.815ZM358.958 124.903V114.87H355.41V113.458H357.241C357.725 113.458 358.112 113.388 358.405 113.248C358.71 113.109 358.926 112.886 359.053 112.581C359.193 112.276 359.263 111.869 359.263 111.36H360.598V124.903H358.958ZM354.685 124.903V123.3H363.841V124.903H354.685ZM367.038 127.001L372.836 110.597H374.362L368.564 127.001H367.038ZM381.431 125.132C380.427 125.132 379.626 124.795 379.028 124.121C378.43 123.434 378.132 122.493 378.132 121.298V114.793H379.734V120.859C379.734 121.838 379.906 122.563 380.249 123.033C380.605 123.491 381.145 123.72 381.87 123.72C382.659 123.72 383.282 123.466 383.739 122.957C384.197 122.436 384.426 121.724 384.426 120.821V114.793H386.028V124.903H384.502V122.404L384.75 122.538C384.547 123.364 384.159 124.006 383.587 124.464C383.015 124.909 382.296 125.132 381.431 125.132ZM393.765 125.132C392.888 125.132 392.131 124.979 391.495 124.674C390.859 124.369 390.357 123.962 389.988 123.453C389.632 122.932 389.429 122.353 389.378 121.717L391.056 121.603C391.158 122.226 391.432 122.716 391.877 123.072C392.334 123.428 392.964 123.606 393.765 123.606C394.515 123.606 395.094 123.498 395.501 123.281C395.92 123.065 396.13 122.728 396.13 122.27C396.13 121.978 396.06 121.736 395.92 121.546C395.78 121.355 395.52 121.196 395.138 121.069C394.757 120.929 394.197 120.795 393.46 120.668C392.481 120.49 391.711 120.274 391.152 120.02C390.605 119.753 390.217 119.422 389.988 119.028C389.759 118.634 389.645 118.163 389.645 117.616C389.645 117.031 389.791 116.51 390.084 116.052C390.376 115.595 390.808 115.232 391.381 114.965C391.953 114.698 392.652 114.565 393.479 114.565C394.318 114.565 395.017 114.717 395.577 115.022C396.149 115.315 396.601 115.709 396.931 116.205C397.262 116.688 397.478 117.222 397.58 117.807L395.901 117.922C395.825 117.566 395.679 117.254 395.463 116.987C395.259 116.707 394.986 116.491 394.642 116.338C394.312 116.173 393.918 116.09 393.46 116.09C392.722 116.09 392.175 116.237 391.819 116.529C391.463 116.822 391.285 117.184 391.285 117.616C391.285 117.96 391.368 118.233 391.533 118.437C391.699 118.64 391.966 118.805 392.334 118.933C392.703 119.047 393.193 119.155 393.803 119.257C394.846 119.422 395.653 119.638 396.225 119.905C396.798 120.16 397.198 120.478 397.427 120.859C397.656 121.24 397.77 121.711 397.77 122.27C397.77 122.868 397.592 123.383 397.236 123.815C396.893 124.235 396.416 124.559 395.806 124.788C395.208 125.017 394.528 125.132 393.765 125.132ZM405.183 125.132C404.229 125.132 403.403 124.915 402.703 124.483C402.017 124.051 401.482 123.44 401.101 122.652C400.732 121.851 400.548 120.916 400.548 119.848C400.548 118.78 400.732 117.852 401.101 117.063C401.482 116.275 402.01 115.664 402.684 115.232C403.371 114.787 404.178 114.565 405.107 114.565C405.984 114.565 406.76 114.774 407.434 115.194C408.108 115.601 408.635 116.199 409.017 116.987C409.398 117.775 409.589 118.735 409.589 119.867V120.344H402.226C402.29 121.425 402.576 122.239 403.085 122.785C403.606 123.332 404.305 123.606 405.183 123.606C405.844 123.606 406.384 123.453 406.804 123.148C407.236 122.83 407.535 122.417 407.701 121.908L409.417 122.042C409.15 122.944 408.642 123.688 407.891 124.273C407.154 124.845 406.251 125.132 405.183 125.132ZM402.226 118.933H407.834C407.758 117.953 407.472 117.235 406.976 116.777C406.48 116.319 405.857 116.09 405.107 116.09C404.331 116.09 403.689 116.332 403.18 116.815C402.684 117.286 402.366 117.992 402.226 118.933ZM415.075 124.903V114.793H416.41L416.563 117.349L416.41 117.311C416.537 116.447 416.811 115.811 417.23 115.404C417.663 114.997 418.235 114.793 418.947 114.793H421.026V116.243H418.966C418.47 116.243 418.05 116.345 417.707 116.548C417.376 116.739 417.122 117.025 416.944 117.407C416.766 117.775 416.677 118.239 416.677 118.799V124.903H415.075ZM412.443 124.903V123.491H419.881V124.903H412.443ZM412.443 116.205V114.793H415.952V116.205H412.443ZM428.076 125.132C427.198 125.132 426.442 124.979 425.806 124.674C425.17 124.369 424.668 123.962 424.299 123.453C423.943 122.932 423.74 122.353 423.689 121.717L425.367 121.603C425.469 122.226 425.743 122.716 426.188 123.072C426.645 123.428 427.275 123.606 428.076 123.606C428.826 123.606 429.405 123.498 429.812 123.281C430.231 123.065 430.441 122.728 430.441 122.27C430.441 121.978 430.371 121.736 430.231 121.546C430.091 121.355 429.831 121.196 429.449 121.069C429.068 120.929 428.508 120.795 427.771 120.668C426.792 120.49 426.022 120.274 425.463 120.02C424.916 119.753 424.528 119.422 424.299 119.028C424.07 118.634 423.956 118.163 423.956 117.616C423.956 117.031 424.102 116.51 424.395 116.052C424.687 115.595 425.119 115.232 425.692 114.965C426.264 114.698 426.963 114.565 427.79 114.565C428.629 114.565 429.328 114.717 429.888 115.022C430.46 115.315 430.912 115.709 431.242 116.205C431.573 116.688 431.789 117.222 431.891 117.807L430.212 117.922C430.136 117.566 429.99 117.254 429.773 116.987C429.57 116.707 429.297 116.491 428.953 116.338C428.623 116.173 428.228 116.09 427.771 116.09C427.033 116.09 426.486 116.237 426.13 116.529C425.774 116.822 425.596 117.184 425.596 117.616C425.596 117.96 425.679 118.233 425.844 118.437C426.01 118.64 426.277 118.805 426.645 118.933C427.014 119.047 427.504 119.155 428.114 119.257C429.157 119.422 429.964 119.638 430.536 119.905C431.109 120.16 431.509 120.478 431.738 120.859C431.967 121.24 432.081 121.711 432.081 122.27C432.081 122.868 431.903 123.383 431.547 123.815C431.204 124.235 430.727 124.559 430.117 124.788C429.519 125.017 428.839 125.132 428.076 125.132Z" fill="white"/>
<path d="M185.972 155.573H500.694C508.266 155.573 514.404 161.711 514.404 169.282V191.933C514.404 199.504 508.266 205.642 500.694 205.642H185.972C178.401 205.642 172.262 199.504 172.262 191.933V169.282C172.262 161.711 178.401 155.573 185.972 155.573Z" fill="url(#paint2_linear_1946_1451)"/>
<path d="M185.972 155.573H500.694C508.266 155.573 514.404 161.711 514.404 169.282V191.933C514.404 199.504 508.266 205.642 500.694 205.642H185.972C178.401 205.642 172.262 199.504 172.262 191.933V169.282C172.262 161.711 178.401 155.573 185.972 155.573Z" stroke="#171717" stroke-width="1.19213"/>
<path d="M181.204 173.43C181.204 168.163 185.474 163.893 190.741 163.893H263.509C268.776 163.893 273.046 168.163 273.046 173.43V188.356C273.046 193.624 268.776 197.893 263.509 197.893H190.741C185.474 197.893 181.204 193.624 181.204 188.356V173.43Z" fill="#FF6868"/>
<path d="M195.081 186.893V173.351H199.277C201.363 173.351 202.965 173.942 204.084 175.125C205.216 176.295 205.782 177.967 205.782 180.141C205.782 182.303 205.229 183.969 204.122 185.139C203.016 186.308 201.439 186.893 199.392 186.893H195.081ZM196.722 185.291H199.277C200.867 185.291 202.062 184.865 202.863 184.013C203.664 183.149 204.065 181.858 204.065 180.141C204.065 178.399 203.664 177.102 202.863 176.25C202.062 175.385 200.867 174.953 199.277 174.953H196.722V185.291ZM208.139 186.893V173.351H216.646V174.953H209.779V179.321H216.417V180.885H209.779V185.291H216.798V186.893H208.139ZM219.632 186.893V173.351H221.272V186.13L220.452 185.291H228.043V186.893H219.632ZM229.746 186.893V173.351H238.253V174.953H231.386V179.321H238.024V180.885H231.386V185.291H238.406V186.893H229.746ZM243.928 186.893V174.953H239.713V173.351H249.784V174.953H245.569V186.893H243.928ZM251.186 186.893V173.351H259.693V174.953H252.826V179.321H259.464V180.885H252.826V185.291H259.845V186.893H251.186Z" fill="black"/>
<path d="M287.028 188.992L292.826 172.588H294.352L288.554 188.992H287.028ZM300.792 187.122C300.156 187.122 299.584 187.008 299.075 186.779C298.566 186.55 298.166 186.232 297.873 185.825C297.581 185.406 297.435 184.922 297.435 184.376C297.435 183.511 297.689 182.843 298.198 182.373C298.719 181.89 299.533 181.54 300.639 181.324L304.034 180.637C304.034 179.772 303.837 179.13 303.443 178.711C303.061 178.291 302.508 178.081 301.783 178.081C301.084 178.081 300.537 178.24 300.143 178.558C299.749 178.863 299.476 179.308 299.323 179.893L297.625 179.76C297.816 178.806 298.267 178.037 298.98 177.452C299.704 176.854 300.639 176.555 301.783 176.555C303.004 176.555 303.952 176.924 304.626 177.662C305.299 178.386 305.636 179.391 305.636 180.675V184.872C305.636 185.1 305.687 185.259 305.789 185.348C305.891 185.437 306.043 185.482 306.247 185.482H306.895V186.893C306.819 186.906 306.698 186.913 306.533 186.913C306.368 186.925 306.209 186.932 306.056 186.932C305.624 186.932 305.255 186.862 304.95 186.722C304.657 186.582 304.435 186.359 304.282 186.054C304.13 185.736 304.047 185.329 304.034 184.833H304.339C304.25 185.266 304.034 185.66 303.691 186.016C303.36 186.359 302.941 186.633 302.432 186.836C301.923 187.027 301.377 187.122 300.792 187.122ZM300.944 185.711C301.631 185.711 302.203 185.596 302.661 185.368C303.119 185.126 303.462 184.795 303.691 184.376C303.92 183.943 304.034 183.447 304.034 182.888V182.01L300.944 182.621C300.258 182.748 299.781 182.945 299.514 183.212C299.247 183.466 299.113 183.803 299.113 184.223C299.113 184.694 299.272 185.062 299.59 185.329C299.921 185.584 300.372 185.711 300.944 185.711ZM309.368 189.755V176.784H310.855L310.893 179.073L310.665 178.959C310.919 178.17 311.338 177.573 311.923 177.166C312.521 176.759 313.208 176.555 313.983 176.555C314.988 176.555 315.808 176.803 316.444 177.299C317.093 177.795 317.569 178.444 317.875 179.245C318.18 180.046 318.332 180.911 318.332 181.839C318.332 182.767 318.18 183.632 317.875 184.433C317.569 185.234 317.093 185.883 316.444 186.378C315.808 186.874 314.988 187.122 313.983 187.122C313.462 187.122 312.973 187.033 312.515 186.855C312.07 186.677 311.688 186.429 311.37 186.111C311.065 185.793 310.855 185.418 310.741 184.986L310.97 184.719V189.755H309.368ZM313.831 185.596C314.708 185.596 315.395 185.266 315.891 184.605C316.399 183.943 316.654 183.021 316.654 181.839C316.654 180.656 316.399 179.734 315.891 179.073C315.395 178.412 314.708 178.081 313.831 178.081C313.246 178.081 312.737 178.221 312.305 178.501C311.885 178.781 311.555 179.2 311.313 179.76C311.084 180.319 310.97 181.012 310.97 181.839C310.97 182.665 311.084 183.358 311.313 183.918C311.542 184.477 311.873 184.897 312.305 185.177C312.737 185.457 313.246 185.596 313.831 185.596ZM324.867 186.893V176.784H326.469V186.893H324.867ZM320.804 186.893V185.482H329.96V186.893H320.804ZM320.995 178.196V176.784H326.469V178.196H320.995ZM324.715 175.201V173.332H326.393V175.201H324.715ZM332.776 188.992L338.574 172.588H340.1L334.301 188.992H332.776ZM346.864 186.893L343.106 176.784H344.861L347.875 185.253L350.888 176.784H352.643L348.886 186.893H346.864ZM359.007 186.893V176.86H355.459V175.449H357.29C357.773 175.449 358.161 175.379 358.453 175.239C358.759 175.099 358.975 174.877 359.102 174.572C359.242 174.266 359.312 173.859 359.312 173.351H360.647V186.893H359.007ZM354.734 186.893V185.291H363.89V186.893H354.734ZM367.087 188.992L372.885 172.588H374.411L368.612 188.992H367.087ZM377.989 189.755V176.784H379.477L379.515 179.073L379.287 178.959C379.541 178.17 379.96 177.573 380.545 177.166C381.143 176.759 381.83 176.555 382.605 176.555C383.61 176.555 384.43 176.803 385.066 177.299C385.714 177.795 386.191 178.444 386.497 179.245C386.802 180.046 386.954 180.911 386.954 181.839C386.954 182.767 386.802 183.632 386.497 184.433C386.191 185.234 385.714 185.883 385.066 186.378C384.43 186.874 383.61 187.122 382.605 187.122C382.084 187.122 381.594 187.033 381.137 186.855C380.692 186.677 380.31 186.429 379.992 186.111C379.687 185.793 379.477 185.418 379.363 184.986L379.592 184.719V189.755H377.989ZM382.453 185.596C383.33 185.596 384.017 185.266 384.513 184.605C385.021 183.943 385.276 183.021 385.276 181.839C385.276 180.656 385.021 179.734 384.513 179.073C384.017 178.412 383.33 178.081 382.453 178.081C381.868 178.081 381.359 178.221 380.927 178.501C380.507 178.781 380.177 179.2 379.935 179.76C379.706 180.319 379.592 181.012 379.592 181.839C379.592 182.665 379.706 183.358 379.935 183.918C380.164 184.477 380.495 184.897 380.927 185.177C381.359 185.457 381.868 185.596 382.453 185.596ZM393.623 187.122C392.694 187.122 391.881 186.906 391.181 186.474C390.495 186.041 389.961 185.431 389.579 184.643C389.198 183.842 389.007 182.907 389.007 181.839C389.007 180.758 389.198 179.823 389.579 179.035C389.961 178.247 390.495 177.636 391.181 177.204C391.881 176.771 392.694 176.555 393.623 176.555C394.551 176.555 395.358 176.771 396.045 177.204C396.745 177.636 397.285 178.247 397.666 179.035C398.048 179.823 398.239 180.758 398.239 181.839C398.239 182.907 398.048 183.842 397.666 184.643C397.285 185.431 396.745 186.041 396.045 186.474C395.358 186.906 394.551 187.122 393.623 187.122ZM393.623 185.596C394.551 185.596 395.269 185.266 395.778 184.605C396.299 183.931 396.56 183.009 396.56 181.839C396.56 180.669 396.299 179.753 395.778 179.092C395.269 178.418 394.551 178.081 393.623 178.081C392.694 178.081 391.97 178.418 391.448 179.092C390.94 179.753 390.685 180.669 390.685 181.839C390.685 183.009 390.94 183.931 391.448 184.605C391.97 185.266 392.694 185.596 393.623 185.596ZM405.25 187.122C404.373 187.122 403.616 186.97 402.981 186.665C402.345 186.359 401.843 185.952 401.474 185.444C401.118 184.922 400.914 184.344 400.863 183.708L402.542 183.594C402.644 184.217 402.917 184.706 403.362 185.062C403.82 185.418 404.449 185.596 405.25 185.596C406.001 185.596 406.579 185.488 406.986 185.272C407.406 185.056 407.616 184.719 407.616 184.261C407.616 183.969 407.546 183.727 407.406 183.536C407.266 183.346 407.005 183.187 406.624 183.06C406.242 182.92 405.683 182.786 404.945 182.659C403.966 182.481 403.197 182.265 402.637 182.01C402.091 181.743 401.703 181.413 401.474 181.019C401.245 180.624 401.13 180.154 401.13 179.607C401.13 179.022 401.277 178.501 401.569 178.043C401.862 177.585 402.294 177.223 402.866 176.956C403.438 176.689 404.138 176.555 404.964 176.555C405.804 176.555 406.503 176.708 407.063 177.013C407.635 177.306 408.086 177.7 408.417 178.196C408.747 178.679 408.964 179.213 409.065 179.798L407.387 179.912C407.31 179.556 407.164 179.245 406.948 178.978C406.745 178.698 406.471 178.482 406.128 178.329C405.797 178.164 405.403 178.081 404.945 178.081C404.208 178.081 403.661 178.227 403.305 178.52C402.949 178.812 402.771 179.175 402.771 179.607C402.771 179.95 402.854 180.224 403.019 180.427C403.184 180.631 403.451 180.796 403.82 180.923C404.189 181.038 404.678 181.146 405.289 181.248C406.331 181.413 407.139 181.629 407.711 181.896C408.283 182.15 408.684 182.468 408.913 182.85C409.142 183.231 409.256 183.702 409.256 184.261C409.256 184.859 409.078 185.374 408.722 185.806C408.379 186.226 407.902 186.55 407.291 186.779C406.694 187.008 406.013 187.122 405.25 187.122ZM417.985 186.893C417.005 186.893 416.274 186.665 415.791 186.207C415.308 185.749 415.066 185.05 415.066 184.109V174.419H416.668V184.109C416.668 184.579 416.776 184.929 416.993 185.158C417.209 185.374 417.539 185.482 417.985 185.482H420.693V186.893H417.985ZM411.728 178.196V176.784H420.693V178.196H411.728ZM428.124 187.122C427.247 187.122 426.49 186.97 425.855 186.665C425.219 186.359 424.717 185.952 424.348 185.444C423.992 184.922 423.788 184.344 423.737 183.708L425.416 183.594C425.518 184.217 425.791 184.706 426.236 185.062C426.694 185.418 427.323 185.596 428.124 185.596C428.875 185.596 429.453 185.488 429.86 185.272C430.28 185.056 430.49 184.719 430.49 184.261C430.49 183.969 430.42 183.727 430.28 183.536C430.14 183.346 429.879 183.187 429.498 183.06C429.116 182.92 428.557 182.786 427.819 182.659C426.84 182.481 426.071 182.265 425.511 182.01C424.965 181.743 424.577 181.413 424.348 181.019C424.119 180.624 424.004 180.154 424.004 179.607C424.004 179.022 424.151 178.501 424.443 178.043C424.736 177.585 425.168 177.223 425.74 176.956C426.312 176.689 427.012 176.555 427.838 176.555C428.678 176.555 429.377 176.708 429.937 177.013C430.509 177.306 430.96 177.7 431.291 178.196C431.621 178.679 431.838 179.213 431.939 179.798L430.261 179.912C430.184 179.556 430.038 179.245 429.822 178.978C429.619 178.698 429.345 178.482 429.002 178.329C428.671 178.164 428.277 178.081 427.819 178.081C427.082 178.081 426.535 178.227 426.179 178.52C425.823 178.812 425.645 179.175 425.645 179.607C425.645 179.95 425.728 180.224 425.893 180.427C426.058 180.631 426.325 180.796 426.694 180.923C427.063 181.038 427.552 181.146 428.163 181.248C429.205 181.413 430.013 181.629 430.585 181.896C431.157 182.15 431.558 182.468 431.787 182.85C432.016 183.231 432.13 183.702 432.13 184.261C432.13 184.859 431.952 185.374 431.596 185.806C431.253 186.226 430.776 186.55 430.165 186.779C429.568 187.008 428.887 187.122 428.124 187.122ZM435.709 188.992L441.507 172.588H443.033L437.234 188.992H435.709ZM450.503 186.893V176.86H446.955V175.449H448.786C449.269 175.449 449.657 175.379 449.949 175.239C450.255 175.099 450.471 174.877 450.598 174.572C450.738 174.266 450.808 173.859 450.808 173.351H452.143V186.893H450.503ZM446.23 186.893V185.291H455.385V186.893H446.23Z" fill="white"/>
<rect x="1.19213" y="1.19213" width="73.912" height="73.912" rx="36.956" stroke="#171717" stroke-width="2.38426"/>
<path fill-rule="evenodd" clip-rule="evenodd" d="M38.1482 26.2269C34.8562 26.2269 32.1875 28.8956 32.1875 32.1876C32.1875 35.4795 34.8562 38.1482 38.1482 38.1482C41.4401 38.1482 44.1088 35.4795 44.1088 32.1876C44.1088 28.8956 41.4401 26.2269 38.1482 26.2269ZM29.2072 32.1876C29.2072 27.2496 33.2102 23.2466 38.1482 23.2466C43.0861 23.2466 47.0891 27.2496 47.0891 32.1876C47.0891 37.1255 43.0861 41.1285 38.1482 41.1285C33.2102 41.1285 29.2072 37.1255 29.2072 32.1876Z" fill="url(#paint3_linear_1946_1451)"/>
<path fill-rule="evenodd" clip-rule="evenodd" d="M28.6648 42.0763C31.18 39.5612 34.5912 38.1482 38.1482 38.1482C41.7051 38.1482 45.1164 39.5612 47.6315 42.0763C50.1466 44.5915 51.5596 48.0027 51.5596 51.5597C51.5596 52.3826 50.8924 53.0498 50.0694 53.0498C49.2465 53.0498 48.5793 52.3826 48.5793 51.5597C48.5793 48.7931 47.4803 46.1399 45.5241 44.1837C43.5679 42.2275 40.9147 41.1285 38.1482 41.1285C35.3816 41.1285 32.7284 42.2275 30.7722 44.1837C28.816 46.1399 27.717 48.7931 27.717 51.5597C27.717 52.3826 27.0499 53.0498 26.2269 53.0498C25.4039 53.0498 24.7367 52.3826 24.7367 51.5597C24.7367 48.0027 26.1497 44.5915 28.6648 42.0763Z" fill="url(#paint4_linear_1946_1451)"/>
<rect x="1.19213" y="112.192" width="73.912" height="73.912" rx="36.956" fill="black"/>
<rect x="1.19213" y="112.192" width="73.912" height="73.912" rx="36.956" stroke="#171717" stroke-width="2.38426"/>
<path fill-rule="evenodd" clip-rule="evenodd" d="M38.1482 137.227C34.8562 137.227 32.1875 139.896 32.1875 143.188C32.1875 146.48 34.8562 149.148 38.1482 149.148C41.4401 149.148 44.1088 146.48 44.1088 143.188C44.1088 139.896 41.4401 137.227 38.1482 137.227ZM29.2072 143.188C29.2072 138.25 33.2102 134.247 38.1482 134.247C43.0861 134.247 47.0891 138.25 47.0891 143.188C47.0891 148.126 43.0861 152.129 38.1482 152.129C33.2102 152.129 29.2072 148.126 29.2072 143.188Z" fill="url(#paint5_linear_1946_1451)"/>
<path fill-rule="evenodd" clip-rule="evenodd" d="M28.6648 153.076C31.18 150.561 34.5912 149.148 38.1482 149.148C41.7051 149.148 45.1164 150.561 47.6315 153.076C50.1466 155.591 51.5596 159.003 51.5596 162.56C51.5596 163.383 50.8924 164.05 50.0694 164.05C49.2465 164.05 48.5793 163.383 48.5793 162.56C48.5793 159.793 47.4803 157.14 45.5241 155.184C43.5679 153.228 40.9147 152.129 38.1482 152.129C35.3816 152.129 32.7284 153.228 30.7722 155.184C28.816 157.14 27.717 159.793 27.717 162.56C27.717 163.383 27.0499 164.05 26.2269 164.05C25.4039 164.05 24.7367 163.383 24.7367 162.56C24.7367 159.003 26.1497 155.591 28.6648 153.076Z" fill="url(#paint6_linear_1946_1451)"/>
<path d="M76.6762 38.881L82.257 38.881C92.7913 38.881 101.331 47.4207 101.331 57.955L101.331 99.6795C101.331 110.214 109.871 118.754 120.405 118.754L172.263 118.754" stroke="#47FF53" stroke-width="1.19213"/>
<path d="M76 148.5H120.93C131.462 148.5 140 139.962 140 129.43V119" stroke="#47FF53"/>
<defs>
<linearGradient id="paint0_linear_1946_1451" x1="171.667" y1="56.6261" x2="515" y2="56.6261" gradientUnits="userSpaceOnUse">
<stop stop-color="#070707"/>
<stop offset="1" stop-color="#0D0D0D"/>
</linearGradient>
<linearGradient id="paint1_linear_1946_1451" x1="171.667" y1="118.617" x2="515" y2="118.617" gradientUnits="userSpaceOnUse">
<stop stop-color="#070707"/>
<stop offset="1" stop-color="#0D0D0D"/>
</linearGradient>
<linearGradient id="paint2_linear_1946_1451" x1="171.667" y1="180.608" x2="515" y2="180.608" gradientUnits="userSpaceOnUse">
<stop stop-color="#070707"/>
<stop offset="1" stop-color="#0D0D0D"/>
</linearGradient>
<linearGradient id="paint3_linear_1946_1451" x1="38.1482" y1="23.2466" x2="38.1482" y2="41.1285" gradientUnits="userSpaceOnUse">
<stop stop-color="white"/>
<stop offset="1" stop-color="#999999"/>
</linearGradient>
<linearGradient id="paint4_linear_1946_1451" x1="38.1482" y1="38.1482" x2="38.1482" y2="53.0498" gradientUnits="userSpaceOnUse">
<stop stop-color="white"/>
<stop offset="1" stop-color="#999999"/>
</linearGradient>
<linearGradient id="paint5_linear_1946_1451" x1="38.1482" y1="134.247" x2="38.1482" y2="152.129" gradientUnits="userSpaceOnUse">
<stop stop-color="white"/>
<stop offset="1" stop-color="#999999"/>
</linearGradient>
<linearGradient id="paint6_linear_1946_1451" x1="38.1482" y1="149.148" x2="38.1482" y2="164.05" gradientUnits="userSpaceOnUse">
<stop stop-color="white"/>
<stop offset="1" stop-color="#999999"/>
</linearGradient>
</defs>
</svg>
