<svg width="116" height="28" viewBox="0 0 116 28" fill="none" xmlns="http://www.w3.org/2000/svg">
<path d="M105.023 27.1851C103.215 27.1851 101.762 26.7762 100.664 25.9582C99.5663 25.1188 99.0174 23.9565 99.0174 22.4713C99.0174 20.9862 99.4802 19.8239 100.406 18.9844C101.331 18.145 102.741 17.5423 104.635 17.1764L110.35 16.0464C110.35 14.8195 110.07 13.9047 109.51 13.302C108.951 12.6778 108.122 12.3657 107.024 12.3657C106.034 12.3657 105.249 12.6025 104.668 13.076C104.108 13.528 103.72 14.1845 103.505 15.0455L99.308 14.8518C99.6524 13.0222 100.492 11.6231 101.826 10.6545C103.161 9.66444 104.894 9.16938 107.024 9.16938C109.478 9.16938 111.329 9.79358 112.578 11.042C113.848 12.2689 114.483 14.0338 114.483 16.3369V22.6005C114.483 23.0525 114.558 23.3646 114.709 23.5368C114.881 23.709 115.128 23.7951 115.451 23.7951H116V26.7977C115.871 26.8407 115.656 26.873 115.354 26.8945C115.074 26.9161 114.784 26.9268 114.483 26.9268C113.772 26.9268 113.137 26.8192 112.578 26.604C112.018 26.3672 111.588 25.969 111.286 25.4094C110.985 24.8282 110.834 24.0426 110.834 23.0525L111.189 23.3108C111.017 24.0641 110.64 24.7421 110.059 25.3448C109.5 25.926 108.789 26.378 107.928 26.7008C107.067 27.0237 106.099 27.1851 105.023 27.1851ZM105.862 24.1825C106.788 24.1825 107.584 23.9995 108.251 23.6336C108.919 23.2677 109.435 22.7619 109.801 22.1162C110.167 21.4705 110.35 20.7063 110.35 19.8239V18.8553L105.894 19.7593C104.969 19.953 104.302 20.2436 103.893 20.631C103.505 20.9969 103.312 21.4812 103.312 22.0839C103.312 22.7511 103.527 23.2677 103.957 23.6336C104.409 23.9995 105.044 24.1825 105.862 24.1825Z" fill="white"/>
<path d="M82.2974 26.7977V9.55681H86.0426L86.141 12.0204C86.3142 11.5645 86.529 11.1624 86.7852 10.8139C87.3233 10.0821 87.9798 9.73381 88.7547 9.38942C89.5296 9.04504 90.3798 9.16938 91.3053 9.16938C92.5752 9.16938 93.6407 9.44919 94.5016 10.0088C95.3841 10.5684 96.0514 11.3433 96.5034 12.3334C96.9554 13.302 97.1814 14.432 97.1814 15.7235V26.7977H93.0488V17.0472C93.0488 16.0786 92.9519 15.2607 92.7582 14.5935C92.5645 13.9262 92.2416 13.4204 91.7896 13.076C91.3591 12.7101 90.778 12.5271 90.0461 12.5271C88.9484 12.5271 88.0659 12.9146 87.3987 13.6895C86.7529 14.4643 86.4301 15.5836 86.4301 17.0472V26.7977H82.2974Z" fill="white"/>
<path d="M71.4185 26.7977V9.55682H75.2928L75.4045 12.0797C75.6794 11.1341 76.0619 10.8952 76.552 10.3903C77.2838 9.82681 78.2739 9.55682 79.5223 9.55682H81.1043V13.1083H79.49C78.6075 13.1083 77.8757 13.2375 77.2946 13.4957C76.7134 13.754 76.2722 14.163 75.9708 14.7226C75.691 15.2607 75.5511 15.971 75.5511 16.8535V26.7977H71.4185Z" fill="white"/>
<path d="M61.4079 27.1851C59.686 27.1851 58.1901 26.8192 56.9202 26.0874C55.6502 25.334 54.6709 24.2794 53.9821 22.9233C53.2933 21.5673 52.9489 19.9853 52.9489 18.1772C52.9489 16.3692 53.2933 14.798 53.9821 13.4635C54.6709 12.1074 55.6395 11.0527 56.8879 10.2994C58.1578 9.54605 59.6322 9.16938 61.3111 9.16938C62.9469 9.16938 64.3783 9.53529 65.6052 10.2671C66.8536 10.9989 67.8114 12.0536 68.4786 13.4312C69.1459 14.8087 69.4795 16.4661 69.4795 18.4033V19.3396H57.243C57.3291 20.8463 57.7381 21.987 58.4699 22.7619C59.2232 23.5152 60.2134 23.8919 61.4402 23.8919C62.3658 23.8919 63.1299 23.6874 63.7326 23.2785C64.3568 22.848 64.7872 22.2561 65.024 21.5027L69.2535 21.761C68.78 23.4399 67.8437 24.7637 66.4446 25.7322C65.0671 26.7008 63.3882 27.1851 61.4079 27.1851ZM57.243 16.5629H65.2177C65.1316 15.1639 64.7334 14.1307 64.0231 13.4635C63.3128 12.7747 62.4088 12.4303 61.3111 12.4303C60.2134 12.4303 59.2986 12.7854 58.5668 13.4957C57.8565 14.206 57.4152 15.2284 57.243 16.5629ZM59.5676 7.68421L61.5371 3.16413H65.702L62.7963 7.68421H59.5676Z" fill="white"/>
<path d="M48.8136 26.7977C47.0916 26.7977 45.8217 26.3995 45.0038 25.6031C44.2074 24.8067 43.8092 23.5583 43.8092 21.8579V5.52103H47.9418V21.4705C47.9418 22.2668 48.114 22.8265 48.4584 23.1493C48.8028 23.4507 49.3409 23.6013 50.0727 23.6013H52.4942V26.7977H48.8136ZM41.0971 12.7532V9.55681H52.4942V12.7532H41.0971Z" fill="white"/>
<path d="M32.4928 27.1851C30.7709 27.1851 29.275 26.8192 28.005 26.0874C26.7351 25.334 25.7557 24.2794 25.067 22.9233C24.3782 21.5673 24.0338 19.9853 24.0338 18.1772C24.0338 16.3692 24.3782 14.798 25.067 13.4635C25.7557 12.1074 26.7243 11.0527 27.9727 10.2994C29.2427 9.54605 30.7171 9.16938 32.396 9.16938C34.0318 9.16938 35.4632 9.53529 36.69 10.2671C37.9384 10.9989 38.8963 12.0536 39.5635 13.4312C40.2308 14.8087 40.5644 16.4661 40.5644 18.4033V19.3396H28.3279C28.414 20.8462 28.8229 21.987 29.5548 22.7619C30.3081 23.5152 31.2982 23.8919 32.5251 23.8919C33.4506 23.8919 34.2148 23.6874 34.8174 23.2785C35.4416 22.848 35.8721 22.2561 36.1089 21.5027L40.3384 21.761C39.8648 23.4399 38.9285 24.7636 37.5295 25.7322C36.1519 26.7008 34.473 27.1851 32.4928 27.1851ZM28.3279 16.5629H36.3026C36.2165 15.1639 35.8183 14.1307 35.108 13.4635C34.3977 12.7747 33.4937 12.4303 32.396 12.4303C31.2982 12.4303 30.3834 12.7854 29.6516 13.4957C28.9413 14.206 28.5001 15.2284 28.3279 16.5629Z" fill="white"/>
<path d="M19.2904 24.051L17.6829 19.6669L12.0565 15.2827V19.6669L19.2904 24.051Z" fill="white"/>
<path d="M10.522 0.814883L14.9062 0.814877L4.38418 27.12L0 27.12L10.522 0.814883Z" fill="white"/>
<path d="M8.75782 21.6661L12.0565 19.6669V15.2827L11.0727 15.8789L8.75782 21.6661Z" fill="white"/>
<path d="M12.0565 5.19906L19.7288 27.12H24.113L14.9062 0.814877L12.0565 5.19906Z" fill="white"/>
</svg>
