<svg width="851" height="472" viewBox="0 0 851 472" fill="none" xmlns="http://www.w3.org/2000/svg">
<mask id="mask0_3602_285" style="mask-type:alpha" maskUnits="userSpaceOnUse" x="241" y="0" width="697" height="697">
<circle cx="589.414" cy="348.414" r="348.414" fill="#D9D9D9"/>
</mask>
<g mask="url(#mask0_3602_285)">
<circle cx="589.414" cy="348.414" r="346.719" stroke="#171717" stroke-width="3.39089"/>
<line x1="590.262" y1="-4.80675e-10" x2="590.262" y2="693.438" stroke="#171717" stroke-width="3.39089"/>
<path d="M458.017 27.1273C408.751 281.597 408.72 392.199 458.017 669.701" stroke="#171717" stroke-width="3.39089"/>
<path d="M357.986 89.8589C302.349 346.226 302.035 331.449 357.986 606.97" stroke="#171717" stroke-width="3.39089"/>
<path d="M819.147 89.8589C874.784 346.226 875.098 331.449 819.147 606.97" stroke="#171717" stroke-width="3.39089"/>
<path d="M719.116 27.1273C768.382 281.597 768.413 392.199 719.116 669.701" stroke="#171717" stroke-width="3.39089"/>
<path d="M241 0H937.828" stroke="#171717" stroke-width="3.39089"/>
<path d="M241 139.366H937.828" stroke="#171717" stroke-width="3.39089"/>
<path d="M241 278.731H937.828" stroke="#171717" stroke-width="3.39089"/>
<path d="M241 418.097H937.828" stroke="#171717" stroke-width="3.39089"/>
<path d="M590 105V278.5H742.5" stroke="url(#paint0_linear_3602_285)" stroke-width="3"/>
<rect x="558.192" y="42.1921" width="62.1482" height="62.1482" rx="31.0741" fill="#0A0A0A"/>
<rect x="558.192" y="42.1921" width="62.1482" height="62.1482" rx="31.0741" stroke="#171717" stroke-width="2.38426"/>
<path fill-rule="evenodd" clip-rule="evenodd" d="M597.144 65.3773C596.917 65.2843 596.674 65.2374 596.429 65.2393C596.183 65.2413 595.941 65.292 595.715 65.3886C595.489 65.4853 595.285 65.6258 595.115 65.8021C595.111 65.806 595.107 65.8099 595.103 65.8138L587.033 73.8738C586.642 74.2641 586.009 74.2637 585.619 73.8729C585.228 73.4822 585.229 72.849 585.62 72.4587L593.684 64.4041C594.038 64.0403 594.461 63.75 594.928 63.5501C595.397 63.3491 595.902 63.2434 596.413 63.2394C596.923 63.2353 597.43 63.3329 597.903 63.5265C598.375 63.7201 598.805 64.0058 599.166 64.3669C599.527 64.728 599.812 65.1574 600.006 65.6301C600.2 66.1027 600.297 66.6091 600.293 67.1198C600.289 67.6306 600.183 68.1354 599.982 68.6049C599.783 69.0715 599.492 69.494 599.129 69.8481L591.074 77.9225C590.684 78.3135 590.051 78.3143 589.66 77.9243C589.269 77.5342 589.268 76.9011 589.658 76.51L597.718 68.43C597.722 68.426 597.726 68.422 597.731 68.418C597.907 68.2473 598.047 68.0431 598.144 67.8175C598.241 67.5919 598.291 67.3494 598.293 67.104C598.295 66.8585 598.248 66.6152 598.155 66.3881C598.062 66.161 597.925 65.9546 597.751 65.7811C597.578 65.6076 597.372 65.4703 597.144 65.3773Z" fill="url(#paint1_linear_3602_285)"/>
<path fill-rule="evenodd" clip-rule="evenodd" d="M580.336 79.2254C580.337 77.01 582.118 75.2063 584.336 75.2063C584.337 75.2063 584.338 75.2063 584.34 75.2063C584.866 75.2081 585.387 75.3135 585.873 75.5166C586.359 75.7198 586.8 76.0166 587.171 76.3902C587.542 76.7638 587.836 77.2069 588.036 77.694C588.236 78.1807 588.338 78.7019 588.336 79.228C588.335 82.013 586.094 84.2663 583.336 84.2663C581.431 84.2663 579.779 83.124 578.625 81.9492C578.521 81.8439 578.393 81.6814 578.322 81.4552C578.244 81.2063 578.257 80.9511 578.34 80.7247C578.479 80.3472 578.78 80.143 578.885 80.0736C579.029 79.978 579.191 79.8974 579.315 79.8375C579.386 79.8033 579.442 79.777 579.495 79.7519C579.562 79.7204 579.625 79.6908 579.708 79.65C579.975 79.5187 580.158 79.4082 580.269 79.3036C580.315 79.2606 580.332 79.2339 580.336 79.2254ZM584.335 77.2063C583.234 77.2072 582.336 78.1026 582.336 79.2263C582.336 79.9149 581.999 80.4228 581.638 80.7618C581.401 80.9844 581.13 81.1573 580.888 81.2907C581.676 81.8929 582.521 82.2663 583.336 82.2663C584.978 82.2663 586.336 80.9205 586.336 79.2263C586.336 79.2252 586.336 79.2241 586.336 79.223C586.337 78.959 586.286 78.6975 586.186 78.4533C586.086 78.2091 585.938 77.987 585.752 77.7997C585.566 77.6125 585.345 77.4637 585.102 77.3618C584.859 77.2602 584.598 77.2074 584.335 77.2063ZM579.991 81.7399C579.993 81.7386 579.995 81.7371 579.998 81.7355C579.978 81.7513 579.972 81.7524 579.991 81.7399Z" fill="url(#paint2_linear_3602_285)"/>
<rect x="722.192" y="249.192" width="62.1482" height="62.1482" rx="31.0741" fill="#0A0A0A"/>
<rect x="722.192" y="249.192" width="62.1482" height="62.1482" rx="31.0741" stroke="#171717" stroke-width="2.38426"/>
<path fill-rule="evenodd" clip-rule="evenodd" d="M745.266 271.266C745.001 271.266 744.747 271.371 744.559 271.559C744.372 271.747 744.266 272.001 744.266 272.266V276.266C744.266 276.531 744.372 276.786 744.559 276.973C744.747 277.161 745.001 277.266 745.266 277.266H747.266C747.819 277.266 748.266 277.714 748.266 278.266C748.266 278.818 747.819 279.266 747.266 279.266H745.266C744.471 279.266 743.708 278.95 743.145 278.387C742.582 277.825 742.266 277.062 742.266 276.266V272.266C742.266 271.47 742.582 270.707 743.145 270.145C743.708 269.582 744.471 269.266 745.266 269.266H761.266C762.062 269.266 762.825 269.582 763.388 270.145C763.95 270.707 764.266 271.47 764.266 272.266V276.266C764.266 277.062 763.95 277.825 763.388 278.387C762.825 278.95 762.062 279.266 761.266 279.266H759.266C758.714 279.266 758.266 278.818 758.266 278.266C758.266 277.714 758.714 277.266 759.266 277.266H761.266C761.531 277.266 761.786 277.161 761.973 276.973C762.161 276.786 762.266 276.531 762.266 276.266V272.266C762.266 272.001 762.161 271.747 761.973 271.559C761.786 271.371 761.531 271.266 761.266 271.266H745.266Z" fill="url(#paint3_linear_3602_285)"/>
<path fill-rule="evenodd" clip-rule="evenodd" d="M743.145 282.145C743.708 281.582 744.471 281.266 745.266 281.266H747.266C747.819 281.266 748.266 281.714 748.266 282.266C748.266 282.818 747.819 283.266 747.266 283.266H745.266C745.001 283.266 744.747 283.371 744.559 283.559C744.372 283.747 744.266 284.001 744.266 284.266V288.266C744.266 288.531 744.372 288.786 744.559 288.973C744.747 289.161 745.001 289.266 745.266 289.266H761.266C761.531 289.266 761.786 289.161 761.973 288.973C762.161 288.786 762.266 288.531 762.266 288.266V284.266C762.266 284.001 762.161 283.747 761.973 283.559C761.786 283.371 761.531 283.266 761.266 283.266H759.266C758.714 283.266 758.266 282.818 758.266 282.266C758.266 281.714 758.714 281.266 759.266 281.266H761.266C762.062 281.266 762.825 281.582 763.388 282.145C763.95 282.707 764.266 283.47 764.266 284.266V288.266C764.266 289.062 763.95 289.825 763.388 290.387C762.825 290.95 762.062 291.266 761.266 291.266H745.266C744.471 291.266 743.708 290.95 743.145 290.387C742.582 289.825 742.266 289.062 742.266 288.266V284.266C742.266 283.47 742.582 282.707 743.145 282.145Z" fill="url(#paint4_linear_3602_285)"/>
<path fill-rule="evenodd" clip-rule="evenodd" d="M746.266 274.266C746.266 273.714 746.714 273.266 747.266 273.266H747.276C747.829 273.266 748.276 273.714 748.276 274.266C748.276 274.818 747.829 275.266 747.276 275.266H747.266C746.714 275.266 746.266 274.818 746.266 274.266Z" fill="black"/>
<path fill-rule="evenodd" clip-rule="evenodd" d="M746.266 286.266C746.266 285.714 746.714 285.266 747.266 285.266H747.276C747.829 285.266 748.276 285.714 748.276 286.266C748.276 286.818 747.829 287.266 747.276 287.266H747.266C746.714 287.266 746.266 286.818 746.266 286.266Z" fill="black"/>
<path fill-rule="evenodd" clip-rule="evenodd" d="M754.821 273.434C755.28 273.741 755.405 274.361 755.098 274.821L752.135 279.266H756.266C756.635 279.266 756.974 279.469 757.148 279.794C757.322 280.12 757.303 280.514 757.098 280.821L753.098 286.821C752.792 287.28 752.171 287.405 751.712 287.098C751.252 286.792 751.128 286.171 751.434 285.712L754.398 281.266H750.266C749.897 281.266 749.559 281.063 749.385 280.738C749.211 280.413 749.23 280.018 749.434 279.712L753.434 273.712C753.741 273.252 754.361 273.128 754.821 273.434Z" fill="url(#paint5_linear_3602_285)"/>
</g>
<g filter="url(#filter0_d_3602_285)">
<path d="M109 362.306C109 354.405 115.405 348 123.306 348H438.028C445.929 348 452.333 354.405 452.333 362.306V384.956C452.333 392.857 445.929 399.262 438.028 399.262H123.306C115.405 399.262 109 392.857 109 384.956V362.306Z" fill="url(#paint6_linear_3602_285)" shape-rendering="crispEdges"/>
<path d="M123.306 348.596H438.027C445.599 348.596 451.737 354.734 451.737 362.306V384.956C451.737 392.528 445.599 398.665 438.027 398.665H123.306C115.734 398.665 109.596 392.528 109.596 384.956V362.306C109.596 354.734 115.734 348.596 123.306 348.596Z" stroke="#171717" stroke-width="1.19213" shape-rendering="crispEdges"/>
<path d="M118.537 366.454C118.537 361.187 122.807 356.917 128.074 356.917H204.843C210.11 356.917 214.38 361.187 214.38 366.454V381.38C214.38 386.647 210.11 390.917 204.843 390.917H128.074C122.807 390.917 118.537 386.647 118.537 381.38V366.454Z" fill="#47FF53"/>
<path d="M132.608 379.917V366.374H136.804C138.889 366.374 140.492 366.965 141.611 368.148C142.742 369.318 143.308 370.99 143.308 373.165C143.308 375.326 142.755 376.992 141.649 378.162C140.542 379.332 138.966 379.917 136.918 379.917H132.608ZM134.248 378.315H136.804C138.393 378.315 139.589 377.889 140.39 377.037C141.191 376.172 141.592 374.881 141.592 373.165C141.592 371.422 141.191 370.125 140.39 369.273C139.589 368.409 138.393 367.976 136.804 367.976H134.248V378.315ZM145.665 379.917V366.374H154.172V367.976H147.306V372.344H153.943V373.908H147.306V378.315H154.325V379.917H145.665ZM156.972 379.917V366.374H161.836C163.349 366.374 164.525 366.737 165.364 367.461C166.204 368.186 166.623 369.191 166.623 370.475C166.623 371.34 166.433 372.09 166.051 372.726C165.67 373.349 165.123 373.826 164.411 374.156C163.699 374.487 162.84 374.652 161.836 374.652H158.612V379.917H156.972ZM158.612 373.05H161.836C162.853 373.05 163.616 372.834 164.125 372.402C164.646 371.969 164.907 371.327 164.907 370.475C164.907 369.649 164.646 369.025 164.125 368.606C163.616 368.186 162.853 367.976 161.836 367.976H158.612V373.05ZM169.377 379.917V366.374H171.018V379.154L170.198 378.315H177.789V379.917H169.377ZM184.775 380.222C183.491 380.222 182.385 379.942 181.456 379.383C180.541 378.81 179.835 377.997 179.339 376.941C178.843 375.886 178.595 374.627 178.595 373.165C178.595 371.702 178.843 370.443 179.339 369.388C179.835 368.32 180.541 367.5 181.456 366.927C182.385 366.355 183.491 366.069 184.775 366.069C186.072 366.069 187.179 366.355 188.094 366.927C189.023 367.5 189.735 368.32 190.231 369.388C190.726 370.443 190.974 371.702 190.974 373.165C190.974 374.627 190.726 375.886 190.231 376.941C189.735 377.997 189.023 378.81 188.094 379.383C187.179 379.942 186.072 380.222 184.775 380.222ZM184.775 378.62C185.716 378.62 186.517 378.404 187.179 377.971C187.853 377.539 188.368 376.916 188.724 376.102C189.08 375.288 189.258 374.309 189.258 373.165C189.258 372.02 189.08 371.041 188.724 370.227C188.368 369.401 187.853 368.771 187.179 368.339C186.517 367.894 185.716 367.671 184.775 367.671C183.847 367.671 183.046 367.894 182.372 368.339C181.711 368.771 181.202 369.401 180.846 370.227C180.49 371.041 180.312 372.02 180.312 373.165C180.312 374.309 180.49 375.288 180.846 376.102C181.202 376.916 181.711 377.539 182.372 377.971C183.046 378.404 183.847 378.62 184.775 378.62ZM195.747 379.917V374.385L190.96 366.374H192.905L196.567 372.707L200.23 366.374H202.175L197.388 374.385V379.917H195.747Z" fill="black"/>
<path d="M228.018 379.917V366.374H231.222C232.392 366.374 233.409 366.641 234.274 367.175C235.151 367.697 235.825 368.466 236.296 369.483C236.779 370.488 237.021 371.715 237.021 373.165C237.021 374.614 236.779 375.841 236.296 376.846C235.825 377.85 235.151 378.613 234.274 379.135C233.409 379.656 232.392 379.917 231.222 379.917H228.018ZM229.658 378.315H231.127C232.449 378.315 233.473 377.889 234.198 377.037C234.935 376.172 235.304 374.881 235.304 373.165C235.304 371.448 234.935 370.157 234.198 369.292C233.473 368.415 232.449 367.976 231.127 367.976H229.658V378.315ZM243.632 380.146C242.678 380.146 241.852 379.929 241.152 379.497C240.465 379.065 239.931 378.454 239.55 377.666C239.181 376.865 238.997 375.93 238.997 374.862C238.997 373.794 239.181 372.866 239.55 372.077C239.931 371.289 240.459 370.679 241.133 370.246C241.82 369.801 242.627 369.579 243.555 369.579C244.433 369.579 245.209 369.788 245.883 370.208C246.556 370.615 247.084 371.213 247.466 372.001C247.847 372.789 248.038 373.749 248.038 374.881V375.358H240.675C240.739 376.439 241.025 377.253 241.534 377.8C242.055 378.346 242.754 378.62 243.632 378.62C244.293 378.62 244.833 378.467 245.253 378.162C245.685 377.844 245.984 377.431 246.15 376.922L247.866 377.056C247.599 377.958 247.091 378.702 246.34 379.287C245.603 379.86 244.7 380.146 243.632 380.146ZM240.675 373.947H246.283C246.207 372.967 245.921 372.249 245.425 371.791C244.929 371.333 244.306 371.105 243.555 371.105C242.78 371.105 242.138 371.346 241.629 371.829C241.133 372.3 240.815 373.006 240.675 373.947ZM250.701 382.778V369.807H252.189L252.227 372.096L251.998 371.982C252.252 371.194 252.672 370.596 253.257 370.189C253.854 369.782 254.541 369.579 255.317 369.579C256.321 369.579 257.141 369.827 257.777 370.322C258.426 370.818 258.903 371.467 259.208 372.268C259.513 373.069 259.666 373.934 259.666 374.862C259.666 375.79 259.513 376.655 259.208 377.456C258.903 378.257 258.426 378.906 257.777 379.402C257.141 379.898 256.321 380.146 255.317 380.146C254.795 380.146 254.306 380.057 253.848 379.879C253.403 379.701 253.021 379.453 252.704 379.135C252.398 378.817 252.189 378.442 252.074 378.009L252.303 377.742V382.778H250.701ZM255.164 378.62C256.042 378.62 256.728 378.289 257.224 377.628C257.733 376.967 257.987 376.045 257.987 374.862C257.987 373.68 257.733 372.758 257.224 372.096C256.728 371.435 256.042 371.105 255.164 371.105C254.579 371.105 254.071 371.244 253.638 371.524C253.219 371.804 252.888 372.224 252.646 372.783C252.417 373.343 252.303 374.036 252.303 374.862C252.303 375.689 252.417 376.382 252.646 376.941C252.875 377.501 253.206 377.92 253.638 378.2C254.071 378.48 254.579 378.62 255.164 378.62ZM265.819 379.917V369.083C265.819 368.676 265.705 368.358 265.476 368.129C265.247 367.9 264.929 367.786 264.522 367.786H262.138V366.374H264.598C265.527 366.374 266.226 366.616 266.697 367.099C267.18 367.569 267.421 368.269 267.421 369.197V379.917H265.819ZM261.756 379.917V378.505H270.912V379.917H261.756ZM277.771 380.146C276.843 380.146 276.029 379.929 275.33 379.497C274.643 379.065 274.109 378.454 273.727 377.666C273.346 376.865 273.155 375.93 273.155 374.862C273.155 373.781 273.346 372.847 273.727 372.058C274.109 371.27 274.643 370.659 275.33 370.227C276.029 369.795 276.843 369.579 277.771 369.579C278.699 369.579 279.507 369.795 280.194 370.227C280.893 370.659 281.433 371.27 281.815 372.058C282.196 372.847 282.387 373.781 282.387 374.862C282.387 375.93 282.196 376.865 281.815 377.666C281.433 378.454 280.893 379.065 280.194 379.497C279.507 379.929 278.699 380.146 277.771 380.146ZM277.771 378.62C278.699 378.62 279.418 378.289 279.926 377.628C280.448 376.954 280.709 376.032 280.709 374.862C280.709 373.692 280.448 372.777 279.926 372.115C279.418 371.442 278.699 371.105 277.771 371.105C276.843 371.105 276.118 371.442 275.597 372.115C275.088 372.777 274.834 373.692 274.834 374.862C274.834 376.032 275.088 376.954 275.597 377.628C276.118 378.289 276.843 378.62 277.771 378.62ZM286.118 382.778V381.366H287.282C287.638 381.366 287.898 381.309 288.064 381.195C288.242 381.093 288.375 380.921 288.464 380.68L288.827 379.726H288.273L284.516 369.807H286.271L289.342 378.238L292.222 369.807H293.977L289.876 381.195C289.685 381.742 289.399 382.142 289.017 382.396C288.636 382.651 288.108 382.778 287.434 382.778H286.118ZM300.817 380.146C299.863 380.146 299.037 379.929 298.337 379.497C297.65 379.065 297.116 378.454 296.735 377.666C296.366 376.865 296.182 375.93 296.182 374.862C296.182 373.794 296.366 372.866 296.735 372.077C297.116 371.289 297.644 370.679 298.318 370.246C299.005 369.801 299.812 369.579 300.74 369.579C301.618 369.579 302.394 369.788 303.067 370.208C303.741 370.615 304.269 371.213 304.651 372.001C305.032 372.789 305.223 373.749 305.223 374.881V375.358H297.86C297.924 376.439 298.21 377.253 298.719 377.8C299.24 378.346 299.939 378.62 300.817 378.62C301.478 378.62 302.018 378.467 302.438 378.162C302.87 377.844 303.169 377.431 303.335 376.922L305.051 377.056C304.784 377.958 304.276 378.702 303.525 379.287C302.788 379.86 301.885 380.146 300.817 380.146ZM297.86 373.947H303.468C303.392 372.967 303.106 372.249 302.61 371.791C302.114 371.333 301.491 371.105 300.74 371.105C299.965 371.105 299.323 371.346 298.814 371.829C298.318 372.3 298 373.006 297.86 373.947ZM311.453 380.146C310.563 380.146 309.793 379.929 309.145 379.497C308.496 379.065 307.994 378.454 307.638 377.666C307.294 376.878 307.123 375.943 307.123 374.862C307.123 373.781 307.294 372.847 307.638 372.058C307.994 371.27 308.496 370.659 309.145 370.227C309.793 369.795 310.563 369.579 311.453 369.579C312.165 369.579 312.788 369.75 313.322 370.094C313.856 370.424 314.244 370.799 314.485 371.219V366.374H316.088V379.917H314.638L314.581 378.391C314.301 378.938 313.888 379.37 313.341 379.688C312.794 379.993 312.165 380.146 311.453 380.146ZM311.548 378.62C312.158 378.62 312.68 378.467 313.112 378.162C313.557 377.857 313.894 377.424 314.123 376.865C314.365 376.293 314.485 375.625 314.485 374.862C314.485 374.074 314.365 373.4 314.123 372.84C313.894 372.281 313.557 371.855 313.112 371.562C312.667 371.257 312.133 371.105 311.51 371.105C310.683 371.105 310.022 371.442 309.526 372.115C309.043 372.777 308.801 373.692 308.801 374.862C308.801 376.019 309.043 376.935 309.526 377.609C310.022 378.283 310.696 378.62 311.548 378.62ZM336.444 379.917C335.465 379.917 334.734 379.688 334.25 379.23C333.767 378.772 333.526 378.073 333.526 377.132V367.442H335.128V377.132C335.128 377.602 335.236 377.952 335.452 378.181C335.668 378.397 335.999 378.505 336.444 378.505H339.152V379.917H336.444ZM330.188 371.219V369.807H339.152V371.219H330.188ZM346.393 380.146C345.465 380.146 344.651 379.929 343.952 379.497C343.265 379.065 342.731 378.454 342.349 377.666C341.968 376.865 341.777 375.93 341.777 374.862C341.777 373.781 341.968 372.847 342.349 372.058C342.731 371.27 343.265 370.659 343.952 370.227C344.651 369.795 345.465 369.579 346.393 369.579C347.321 369.579 348.129 369.795 348.815 370.227C349.515 370.659 350.055 371.27 350.437 372.058C350.818 372.847 351.009 373.781 351.009 374.862C351.009 375.93 350.818 376.865 350.437 377.666C350.055 378.454 349.515 379.065 348.815 379.497C348.129 379.929 347.321 380.146 346.393 380.146ZM346.393 378.62C347.321 378.62 348.04 378.289 348.548 377.628C349.07 376.954 349.33 376.032 349.33 374.862C349.33 373.692 349.07 372.777 348.548 372.115C348.04 371.442 347.321 371.105 346.393 371.105C345.465 371.105 344.74 371.442 344.219 372.115C343.71 372.777 343.456 373.692 343.456 374.862C343.456 376.032 343.71 376.954 344.219 377.628C344.74 378.289 345.465 378.62 346.393 378.62ZM369.477 380.222C368.523 380.222 367.678 380.025 366.94 379.631C366.202 379.236 365.611 378.696 365.166 378.009C364.721 377.31 364.46 376.502 364.384 375.587L366.101 375.472C366.19 376.146 366.381 376.719 366.673 377.189C366.978 377.66 367.366 378.016 367.836 378.257C368.32 378.499 368.879 378.62 369.515 378.62C370.151 378.62 370.685 378.543 371.117 378.391C371.55 378.226 371.874 377.99 372.09 377.685C372.319 377.367 372.433 376.992 372.433 376.56C372.433 376.127 372.332 375.752 372.128 375.434C371.937 375.104 371.569 374.799 371.022 374.519C370.488 374.239 369.693 373.953 368.638 373.66C367.697 373.393 366.934 373.101 366.349 372.783C365.776 372.465 365.357 372.077 365.09 371.62C364.836 371.162 364.708 370.596 364.708 369.922C364.708 369.159 364.886 368.491 365.242 367.919C365.611 367.334 366.133 366.883 366.806 366.565C367.48 366.234 368.282 366.069 369.21 366.069C370.138 366.069 370.933 366.26 371.594 366.641C372.255 367.01 372.777 367.519 373.158 368.167C373.552 368.816 373.8 369.553 373.902 370.38L372.185 370.494C372.109 369.947 371.95 369.464 371.709 369.045C371.467 368.612 371.136 368.275 370.717 368.034C370.297 367.792 369.782 367.671 369.172 367.671C368.332 367.671 367.665 367.875 367.169 368.282C366.673 368.676 366.425 369.197 366.425 369.846C366.425 370.265 366.514 370.615 366.692 370.895C366.883 371.162 367.213 371.403 367.684 371.62C368.154 371.823 368.816 372.046 369.668 372.287C370.774 372.592 371.651 372.936 372.3 373.317C372.961 373.699 373.432 374.156 373.711 374.69C374.004 375.212 374.15 375.848 374.15 376.598C374.15 377.31 373.953 377.939 373.559 378.486C373.165 379.033 372.618 379.459 371.918 379.764C371.219 380.069 370.405 380.222 369.477 380.222ZM376.698 379.917V366.374H380.818C381.759 366.374 382.58 366.539 383.279 366.87C383.978 367.201 384.519 367.678 384.9 368.301C385.282 368.911 385.473 369.649 385.473 370.513C385.473 371.378 385.282 372.122 384.9 372.745C384.519 373.355 383.978 373.826 383.279 374.156C382.58 374.487 381.759 374.652 380.818 374.652H378.339V379.917H376.698ZM378.339 373.05H380.628C381.696 373.05 382.484 372.834 382.993 372.402C383.502 371.957 383.756 371.327 383.756 370.513C383.756 369.687 383.502 369.057 382.993 368.625C382.484 368.193 381.696 367.976 380.628 367.976H378.339V373.05ZM388.135 379.917V366.374H391.95C393.438 366.374 394.557 366.705 395.307 367.366C396.07 368.027 396.452 368.93 396.452 370.075C396.452 370.634 396.318 371.136 396.051 371.581C395.784 372.026 395.409 372.376 394.926 372.63C394.443 372.885 393.883 373.012 393.247 373.012V372.897C394.036 372.897 394.71 373.031 395.269 373.298C395.841 373.565 396.274 373.94 396.566 374.423C396.871 374.907 397.024 375.479 397.024 376.14C397.024 377.31 396.617 378.232 395.803 378.906C394.989 379.58 393.864 379.917 392.427 379.917H388.135ZM389.776 378.315H392.446C393.425 378.315 394.144 378.124 394.602 377.742C395.072 377.361 395.307 376.827 395.307 376.14C395.307 375.415 395.066 374.849 394.583 374.442C394.099 374.036 393.387 373.832 392.446 373.832H389.776V378.315ZM389.776 372.23H392.027C392.968 372.23 393.654 372.046 394.087 371.677C394.519 371.308 394.735 370.787 394.735 370.113C394.735 369.426 394.519 368.898 394.087 368.53C393.654 368.161 392.968 367.976 392.027 367.976H389.776V372.23ZM400.526 375.11V373.603H406.63V375.11H400.526ZM414.71 379.917V369.884H411.162V368.472H412.993C413.476 368.472 413.864 368.402 414.157 368.262C414.462 368.123 414.678 367.9 414.805 367.595C414.945 367.29 415.015 366.883 415.015 366.374H416.35V379.917H414.71ZM410.437 379.917V378.315H419.593V379.917H410.437Z" fill="white"/>
</g>
<g filter="url(#filter1_d_3602_285)">
<path d="M54 304.306C54 296.405 60.4048 290 68.3056 290H383.028C390.929 290 397.333 296.405 397.333 304.306V326.956C397.333 334.857 390.929 341.262 383.028 341.262H68.3056C60.4048 341.262 54 334.857 54 326.956V304.306Z" fill="url(#paint7_linear_3602_285)" shape-rendering="crispEdges"/>
<path d="M68.3057 290.596H383.027C390.599 290.596 396.737 296.734 396.737 304.306V326.956C396.737 334.528 390.599 340.665 383.027 340.665H68.3057C60.7341 340.665 54.5957 334.528 54.5957 326.956V304.306C54.5957 296.734 60.7341 290.596 68.3057 290.596Z" stroke="#171717" stroke-width="1.19213" shape-rendering="crispEdges"/>
<path d="M64.54 308.168C64.54 302.901 68.8099 298.631 74.077 298.631H133.846C139.113 298.631 143.383 302.901 143.383 308.168V323.094C143.383 328.361 139.113 332.631 133.846 332.631H74.077C68.8099 332.631 64.54 328.361 64.54 323.094V308.168Z" fill="#FFE347"/>
<path d="M78.2319 321.631V308.088H82.886C84.4882 308.088 85.6899 308.381 86.491 308.966C87.2921 309.551 87.6927 310.473 87.6927 311.731C87.6927 312.316 87.5655 312.831 87.3112 313.276C87.0569 313.721 86.6945 314.071 86.224 314.325C85.7535 314.567 85.194 314.688 84.5455 314.688L84.5264 314.573C85.6835 314.573 86.5927 314.885 87.254 315.508C87.9279 316.118 88.2649 316.92 88.2649 317.911C88.2649 319.145 87.8643 320.073 87.0632 320.696C86.2621 321.319 85.124 321.631 83.649 321.631H78.2319ZM79.8723 320.029H83.649C84.5773 320.029 85.2893 319.838 85.7853 319.456C86.2939 319.075 86.5482 318.528 86.5482 317.816C86.5482 317.104 86.2939 316.551 85.7853 316.157C85.2893 315.75 84.5773 315.546 83.649 315.546H79.8723V320.029ZM79.8723 313.944H82.886C83.8779 313.944 84.6408 313.76 85.1749 313.391C85.709 313.009 85.976 312.482 85.976 311.808C85.976 311.096 85.7153 310.568 85.194 310.225C84.6853 309.869 83.916 309.69 82.886 309.69H79.8723V313.944ZM96.0221 321.936C94.9794 321.936 94.0702 321.733 93.2945 321.326C92.5315 320.919 91.9402 320.34 91.5206 319.59C91.1137 318.827 90.9102 317.93 90.9102 316.9V308.069H92.5506V316.9C92.5506 317.994 92.8494 318.84 93.4471 319.437C94.0575 320.035 94.9158 320.334 96.0221 320.334C97.1157 320.334 97.9613 320.035 98.5589 319.437C99.1693 318.84 99.4745 317.994 99.4745 316.9V308.069H101.115V316.9C101.115 317.93 100.905 318.827 100.485 319.59C100.079 320.34 99.4936 320.919 98.7306 321.326C97.9676 321.733 97.0648 321.936 96.0221 321.936ZM104.626 321.631V308.088H106.267V321.631H104.626ZM109.767 321.631V308.088H111.408V320.868L110.588 320.029H118.179V321.631H109.767ZM119.882 321.631V308.088H124.078C126.164 308.088 127.766 308.68 128.885 309.862C130.017 311.032 130.583 312.704 130.583 314.879C130.583 317.04 130.029 318.706 128.923 319.876C127.817 321.046 126.24 321.631 124.193 321.631H119.882ZM121.522 320.029H124.078C125.668 320.029 126.863 319.603 127.664 318.751C128.465 317.886 128.866 316.595 128.866 314.879C128.866 313.137 128.465 311.84 127.664 310.988C126.863 310.123 125.668 309.69 124.078 309.69H121.522V320.029Z" fill="black"/>
<path d="M157.099 321.631V308.088H160.914C162.402 308.088 163.521 308.419 164.271 309.08C165.034 309.741 165.416 310.644 165.416 311.789C165.416 312.348 165.282 312.85 165.015 313.295C164.748 313.741 164.373 314.09 163.89 314.345C163.406 314.599 162.847 314.726 162.211 314.726V314.612C162.999 314.612 163.673 314.745 164.233 315.012C164.805 315.279 165.238 315.654 165.53 316.138C165.835 316.621 165.988 317.193 165.988 317.854C165.988 319.024 165.581 319.946 164.767 320.62C163.953 321.294 162.828 321.631 161.391 321.631H157.099ZM158.74 320.029H161.41C162.389 320.029 163.108 319.838 163.565 319.456C164.036 319.075 164.271 318.541 164.271 317.854C164.271 317.129 164.029 316.564 163.546 316.157C163.063 315.75 162.351 315.546 161.41 315.546H158.74V320.029ZM158.74 313.944H160.99C161.931 313.944 162.618 313.76 163.05 313.391C163.483 313.022 163.699 312.501 163.699 311.827C163.699 311.14 163.483 310.612 163.05 310.244C162.618 309.875 161.931 309.69 160.99 309.69H158.74V313.944ZM171.836 321.86C170.831 321.86 170.03 321.523 169.433 320.849C168.835 320.162 168.536 319.221 168.536 318.026V311.522H170.138V317.587C170.138 318.566 170.31 319.291 170.653 319.762C171.01 320.219 171.55 320.448 172.275 320.448C173.063 320.448 173.686 320.194 174.144 319.685C174.602 319.164 174.831 318.452 174.831 317.549V311.522H176.433V321.631H174.907V319.132L175.155 319.266C174.951 320.092 174.564 320.734 173.991 321.192C173.419 321.637 172.701 321.86 171.836 321.86ZM183.845 321.631V311.522H185.447V321.631H183.845ZM179.782 321.631V320.219H188.938V321.631H179.782ZM179.973 312.933V311.522H185.447V312.933H179.973ZM183.693 309.938V308.069H185.371V309.938H183.693ZM194.901 321.631V310.797C194.901 310.39 194.786 310.072 194.557 309.843C194.329 309.614 194.011 309.5 193.604 309.5H191.219V308.088H193.68C194.608 308.088 195.308 308.33 195.778 308.813C196.261 309.284 196.503 309.983 196.503 310.911V321.631H194.901ZM190.838 321.631V320.219H199.994V321.631H190.838ZM206.223 321.86C205.333 321.86 204.564 321.644 203.915 321.211C203.267 320.779 202.765 320.169 202.409 319.38C202.065 318.592 201.894 317.657 201.894 316.576C201.894 315.495 202.065 314.561 202.409 313.772C202.765 312.984 203.267 312.374 203.915 311.941C204.564 311.509 205.333 311.293 206.223 311.293C206.935 311.293 207.559 311.464 208.093 311.808C208.627 312.138 209.014 312.513 209.256 312.933V308.088H210.858V321.631H209.409L209.351 320.105C209.072 320.652 208.658 321.084 208.112 321.402C207.565 321.707 206.935 321.86 206.223 321.86ZM206.319 320.334C206.929 320.334 207.45 320.181 207.883 319.876C208.328 319.571 208.665 319.139 208.894 318.579C209.135 318.007 209.256 317.339 209.256 316.576C209.256 315.788 209.135 315.114 208.894 314.554C208.665 313.995 208.328 313.569 207.883 313.276C207.438 312.971 206.904 312.819 206.281 312.819C205.454 312.819 204.793 313.156 204.297 313.83C203.814 314.491 203.572 315.406 203.572 316.576C203.572 317.733 203.814 318.649 204.297 319.323C204.793 319.997 205.467 320.334 206.319 320.334ZM218.461 321.86C217.508 321.86 216.681 321.644 215.982 321.211C215.295 320.779 214.761 320.169 214.38 319.38C214.011 318.579 213.826 317.644 213.826 316.576C213.826 315.508 214.011 314.58 214.38 313.791C214.761 313.003 215.289 312.393 215.963 311.96C216.649 311.515 217.457 311.293 218.385 311.293C219.263 311.293 220.038 311.503 220.712 311.922C221.386 312.329 221.914 312.927 222.295 313.715C222.677 314.504 222.868 315.464 222.868 316.595V317.072H215.505C215.569 318.153 215.855 318.967 216.363 319.514C216.885 320.06 217.584 320.334 218.461 320.334C219.123 320.334 219.663 320.181 220.083 319.876C220.515 319.558 220.814 319.145 220.979 318.636L222.696 318.77C222.429 319.673 221.92 320.416 221.17 321.001C220.432 321.574 219.53 321.86 218.461 321.86ZM215.505 315.661H221.113C221.036 314.682 220.75 313.963 220.254 313.505C219.758 313.048 219.135 312.819 218.385 312.819C217.609 312.819 216.967 313.06 216.459 313.543C215.963 314.014 215.645 314.72 215.505 315.661ZM229.097 321.86C228.207 321.86 227.438 321.644 226.789 321.211C226.141 320.779 225.639 320.169 225.282 319.38C224.939 318.592 224.767 317.657 224.767 316.576C224.767 315.495 224.939 314.561 225.282 313.772C225.639 312.984 226.141 312.374 226.789 311.941C227.438 311.509 228.207 311.293 229.097 311.293C229.809 311.293 230.432 311.464 230.967 311.808C231.501 312.138 231.888 312.513 232.13 312.933V308.088H233.732V321.631H232.283L232.225 320.105C231.946 320.652 231.532 321.084 230.986 321.402C230.439 321.707 229.809 321.86 229.097 321.86ZM229.193 320.334C229.803 320.334 230.324 320.181 230.757 319.876C231.202 319.571 231.539 319.139 231.768 318.579C232.009 318.007 232.13 317.339 232.13 316.576C232.13 315.788 232.009 315.114 231.768 314.554C231.539 313.995 231.202 313.569 230.757 313.276C230.312 312.971 229.778 312.819 229.155 312.819C228.328 312.819 227.667 313.156 227.171 313.83C226.688 314.491 226.446 315.406 226.446 316.576C226.446 317.733 226.688 318.649 227.171 319.323C227.667 319.997 228.341 320.334 229.193 320.334ZM252.467 321.631V311.522H254.069V321.631H252.467ZM248.404 321.631V320.219H257.56V321.631H248.404ZM248.595 312.933V311.522H254.069V312.933H248.595ZM252.315 309.938V308.069H253.993V309.938H252.315ZM259.918 321.631V311.522H261.386L261.444 314.097L261.253 313.925C261.38 313.327 261.609 312.838 261.94 312.456C262.283 312.062 262.69 311.77 263.16 311.579C263.631 311.388 264.127 311.293 264.648 311.293C265.424 311.293 266.066 311.464 266.575 311.808C267.096 312.151 267.49 312.615 267.757 313.2C268.024 313.772 268.158 314.415 268.158 315.127V321.631H266.556V315.584C266.556 314.643 266.371 313.931 266.002 313.448C265.634 312.952 265.068 312.704 264.305 312.704C263.783 312.704 263.313 312.819 262.893 313.048C262.474 313.264 262.137 313.588 261.882 314.02C261.641 314.44 261.52 314.961 261.52 315.584V321.631H259.918ZM286.607 321.631V311.598H283.059V310.186H284.89C285.373 310.186 285.761 310.116 286.053 309.977C286.359 309.837 286.575 309.614 286.702 309.309C286.842 309.004 286.912 308.597 286.912 308.088H288.247V321.631H286.607ZM282.334 321.631V320.029H291.489V321.631H282.334ZM294.915 319.685L300.256 309.958L301.782 310.034L296.441 319.762L294.915 319.685ZM298.349 321.936C297.37 321.936 296.518 321.65 295.793 321.078C295.081 320.505 294.534 319.692 294.152 318.636C293.771 317.581 293.58 316.328 293.58 314.879C293.58 313.416 293.771 312.157 294.152 311.102C294.534 310.047 295.081 309.233 295.793 308.66C296.518 308.076 297.37 307.783 298.349 307.783C299.341 307.783 300.193 308.076 300.905 308.66C301.617 309.233 302.164 310.047 302.545 311.102C302.926 312.157 303.117 313.416 303.117 314.879C303.117 316.328 302.926 317.581 302.545 318.636C302.164 319.692 301.617 320.505 300.905 321.078C300.193 321.65 299.341 321.936 298.349 321.936ZM298.349 320.334C298.985 320.334 299.525 320.111 299.97 319.666C300.428 319.221 300.777 318.592 301.019 317.778C301.273 316.951 301.401 315.985 301.401 314.879C301.401 313.747 301.273 312.774 301.019 311.96C300.777 311.134 300.428 310.498 299.97 310.053C299.525 309.608 298.985 309.385 298.349 309.385C297.726 309.385 297.185 309.608 296.727 310.053C296.27 310.498 295.914 311.134 295.659 311.96C295.418 312.774 295.297 313.747 295.297 314.879C295.297 315.985 295.418 316.951 295.659 317.778C295.914 318.592 296.27 319.221 296.727 319.666C297.185 320.111 297.726 320.334 298.349 320.334ZM309.976 321.86C309.099 321.86 308.342 321.707 307.707 321.402C307.071 321.097 306.569 320.69 306.2 320.181C305.844 319.66 305.64 319.081 305.589 318.445L307.268 318.331C307.37 318.954 307.643 319.444 308.088 319.8C308.546 320.156 309.175 320.334 309.976 320.334C310.727 320.334 311.305 320.226 311.712 320.01C312.132 319.793 312.342 319.456 312.342 318.999C312.342 318.706 312.272 318.465 312.132 318.274C311.992 318.083 311.731 317.924 311.35 317.797C310.968 317.657 310.409 317.524 309.671 317.396C308.692 317.218 307.923 317.002 307.363 316.748C306.817 316.481 306.429 316.15 306.2 315.756C305.971 315.362 305.856 314.891 305.856 314.345C305.856 313.76 306.003 313.238 306.295 312.78C306.588 312.323 307.02 311.96 307.592 311.693C308.164 311.426 308.864 311.293 309.69 311.293C310.53 311.293 311.229 311.445 311.788 311.75C312.361 312.043 312.812 312.437 313.143 312.933C313.473 313.416 313.69 313.95 313.791 314.535L312.113 314.65C312.036 314.294 311.89 313.982 311.674 313.715C311.471 313.435 311.197 313.219 310.854 313.067C310.523 312.901 310.129 312.819 309.671 312.819C308.934 312.819 308.387 312.965 308.031 313.257C307.675 313.55 307.497 313.912 307.497 314.345C307.497 314.688 307.579 314.961 307.745 315.165C307.91 315.368 308.177 315.534 308.546 315.661C308.915 315.775 309.404 315.883 310.015 315.985C311.057 316.15 311.865 316.366 312.437 316.633C313.009 316.888 313.41 317.206 313.639 317.587C313.868 317.969 313.982 318.439 313.982 318.999C313.982 319.596 313.804 320.111 313.448 320.544C313.105 320.963 312.628 321.288 312.017 321.516C311.42 321.745 310.739 321.86 309.976 321.86Z" fill="white"/>
<path fill-rule="evenodd" clip-rule="evenodd" d="M383.5 308.924C383.891 309.314 383.891 309.947 383.5 310.338L372.5 321.338C372.11 321.728 371.477 321.728 371.086 321.338L366.086 316.338C365.696 315.947 365.696 315.314 366.086 314.924C366.477 314.533 367.11 314.533 367.5 314.924L371.793 319.217L382.086 308.924C382.477 308.533 383.11 308.533 383.5 308.924Z" fill="url(#paint8_linear_3602_285)"/>
</g>
<g filter="url(#filter2_d_3602_285)">
<path d="M30 246.306C30 238.405 36.4048 232 44.3056 232H359.028C366.929 232 373.333 238.405 373.333 246.306V268.956C373.333 276.857 366.929 283.262 359.028 283.262H44.3056C36.4048 283.262 30 276.857 30 268.956V246.306Z" fill="url(#paint9_linear_3602_285)" shape-rendering="crispEdges"/>
<path d="M44.3057 232.596H359.027C366.599 232.596 372.737 238.734 372.737 246.306V268.956C372.737 276.528 366.599 282.665 359.027 282.665H44.3057C36.7341 282.665 30.5957 276.528 30.5957 268.956V246.306C30.5957 238.734 36.7341 232.596 44.3057 232.596Z" stroke="#171717" stroke-width="1.19213" shape-rendering="crispEdges"/>
<path d="M40.54 250.168C40.54 244.901 44.8099 240.631 50.077 240.631H98.8455C104.113 240.631 108.383 244.901 108.383 250.168V265.094C108.383 270.361 104.113 274.631 98.8455 274.631H50.077C44.8099 274.631 40.54 270.361 40.54 265.094V250.168Z" fill="#0080FF"/>
<path d="M57.2051 263.631V251.69H52.9897V250.088H63.0608V251.69H58.8454V263.631H57.2051ZM64.4625 263.631V250.088H72.9695V251.69H66.1028V256.058H72.7406V257.623H66.1028V262.029H73.1221V263.631H64.4625ZM80.6094 263.936C79.5667 263.936 78.6575 263.739 77.8818 263.345C77.1061 262.951 76.4894 262.41 76.0316 261.723C75.5866 261.024 75.3259 260.217 75.2496 259.301L76.9663 259.187C77.0553 259.861 77.2524 260.433 77.5576 260.903C77.8627 261.374 78.2697 261.73 78.7783 261.971C79.2997 262.213 79.9227 262.334 80.6476 262.334C81.2834 262.334 81.8238 262.251 82.2689 262.086C82.7139 261.921 83.0509 261.679 83.2798 261.361C83.5214 261.043 83.6422 260.655 83.6422 260.198C83.6422 259.778 83.5405 259.409 83.337 259.091C83.1463 258.761 82.7711 258.462 82.2116 258.195C81.6648 257.915 80.851 257.642 79.7702 257.375C78.7274 257.108 77.8945 256.815 77.2714 256.497C76.6611 256.179 76.216 255.791 75.9363 255.334C75.6692 254.876 75.5357 254.31 75.5357 253.636C75.5357 252.873 75.7137 252.205 76.0698 251.633C76.4385 251.048 76.9599 250.597 77.6339 250.279C78.3078 249.948 79.1089 249.783 80.0372 249.783C81.029 249.783 81.881 249.974 82.5931 250.355C83.3052 250.724 83.8711 251.233 84.2907 251.881C84.7103 252.53 84.971 253.267 85.0727 254.094L83.3561 254.208C83.2798 253.661 83.1018 253.178 82.822 252.759C82.555 252.326 82.1862 251.989 81.7157 251.748C81.2452 251.506 80.673 251.385 79.999 251.385C79.1598 251.385 78.4922 251.589 77.9963 251.996C77.5003 252.39 77.2524 252.911 77.2524 253.56C77.2524 253.979 77.3477 254.329 77.5385 254.609C77.7419 254.876 78.098 255.117 78.6066 255.334C79.1153 255.537 79.8464 255.76 80.8002 256.001C81.9319 256.281 82.8284 256.618 83.4896 257.012C84.1635 257.394 84.6404 257.839 84.9202 258.347C85.2126 258.856 85.3589 259.435 85.3589 260.083C85.3589 260.871 85.1554 261.558 84.7485 262.143C84.3416 262.715 83.7821 263.16 83.07 263.478C82.3579 263.783 81.5377 263.936 80.6094 263.936ZM90.0818 263.631V251.69H85.8664V250.088H95.9375V251.69H91.7221V263.631H90.0818Z" fill="white"/>
<path d="M122.099 263.631V250.088H126.219C127.16 250.088 127.98 250.254 128.68 250.584C129.379 250.915 129.92 251.392 130.301 252.015C130.683 252.625 130.873 253.363 130.873 254.227C130.873 255.092 130.683 255.836 130.301 256.459C129.92 257.069 129.379 257.54 128.68 257.87C127.98 258.201 127.16 258.366 126.219 258.366H123.74V263.631H122.099ZM123.74 256.764H126.028C127.097 256.764 127.885 256.548 128.394 256.116C128.902 255.671 129.157 255.041 129.157 254.227C129.157 253.401 128.902 252.771 128.394 252.339C127.885 251.907 127.097 251.69 126.028 251.69H123.74V256.764ZM136.207 263.86C135.571 263.86 134.999 263.745 134.49 263.516C133.981 263.288 133.581 262.97 133.288 262.563C132.996 262.143 132.85 261.66 132.85 261.113C132.85 260.248 133.104 259.581 133.613 259.11C134.134 258.627 134.948 258.277 136.054 258.061L139.449 257.375C139.449 256.51 139.252 255.868 138.858 255.448C138.476 255.028 137.923 254.819 137.198 254.819C136.499 254.819 135.952 254.978 135.558 255.295C135.164 255.601 134.89 256.046 134.738 256.631L133.04 256.497C133.231 255.543 133.682 254.774 134.395 254.189C135.119 253.592 136.054 253.293 137.198 253.293C138.419 253.293 139.367 253.661 140.04 254.399C140.714 255.124 141.051 256.128 141.051 257.413V261.609C141.051 261.838 141.102 261.997 141.204 262.086C141.306 262.175 141.458 262.219 141.662 262.219H142.31V263.631C142.234 263.644 142.113 263.65 141.948 263.65C141.783 263.663 141.624 263.669 141.471 263.669C141.039 263.669 140.67 263.599 140.365 263.459C140.072 263.319 139.85 263.097 139.697 262.792C139.545 262.474 139.462 262.067 139.449 261.571H139.754C139.665 262.003 139.449 262.397 139.106 262.753C138.775 263.097 138.356 263.37 137.847 263.574C137.338 263.764 136.792 263.86 136.207 263.86ZM136.359 262.448C137.046 262.448 137.618 262.334 138.076 262.105C138.534 261.863 138.877 261.533 139.106 261.113C139.335 260.681 139.449 260.185 139.449 259.625V258.748L136.359 259.358C135.673 259.485 135.196 259.683 134.929 259.95C134.662 260.204 134.528 260.541 134.528 260.96C134.528 261.431 134.687 261.8 135.005 262.067C135.336 262.321 135.787 262.448 136.359 262.448ZM149.17 263.86C148.292 263.86 147.536 263.707 146.9 263.402C146.264 263.097 145.762 262.69 145.393 262.181C145.037 261.66 144.833 261.081 144.782 260.445L146.461 260.331C146.563 260.954 146.836 261.444 147.281 261.8C147.739 262.156 148.368 262.334 149.17 262.334C149.92 262.334 150.498 262.226 150.905 262.01C151.325 261.793 151.535 261.456 151.535 260.999C151.535 260.706 151.465 260.465 151.325 260.274C151.185 260.083 150.924 259.924 150.543 259.797C150.161 259.657 149.602 259.524 148.864 259.396C147.885 259.218 147.116 259.002 146.556 258.748C146.01 258.481 145.622 258.15 145.393 257.756C145.164 257.362 145.05 256.891 145.05 256.345C145.05 255.76 145.196 255.238 145.488 254.78C145.781 254.323 146.213 253.96 146.785 253.693C147.357 253.426 148.057 253.293 148.883 253.293C149.723 253.293 150.422 253.445 150.982 253.75C151.554 254.043 152.005 254.437 152.336 254.933C152.666 255.416 152.883 255.95 152.984 256.535L151.306 256.65C151.23 256.294 151.083 255.982 150.867 255.715C150.664 255.435 150.39 255.219 150.047 255.067C149.716 254.901 149.322 254.819 148.864 254.819C148.127 254.819 147.58 254.965 147.224 255.257C146.868 255.55 146.69 255.912 146.69 256.345C146.69 256.688 146.773 256.961 146.938 257.165C147.103 257.368 147.37 257.534 147.739 257.661C148.108 257.775 148.597 257.883 149.208 257.985C150.25 258.15 151.058 258.366 151.63 258.633C152.202 258.888 152.603 259.206 152.832 259.587C153.061 259.969 153.175 260.439 153.175 260.999C153.175 261.596 152.997 262.111 152.641 262.544C152.298 262.963 151.821 263.288 151.21 263.516C150.613 263.745 149.932 263.86 149.17 263.86ZM160.607 263.86C159.729 263.86 158.973 263.707 158.337 263.402C157.701 263.097 157.199 262.69 156.83 262.181C156.474 261.66 156.27 261.081 156.219 260.445L157.898 260.331C158 260.954 158.273 261.444 158.718 261.8C159.176 262.156 159.805 262.334 160.607 262.334C161.357 262.334 161.935 262.226 162.342 262.01C162.762 261.793 162.972 261.456 162.972 260.999C162.972 260.706 162.902 260.465 162.762 260.274C162.622 260.083 162.361 259.924 161.98 259.797C161.598 259.657 161.039 259.524 160.301 259.396C159.322 259.218 158.553 259.002 157.993 258.748C157.447 258.481 157.059 258.15 156.83 257.756C156.601 257.362 156.487 256.891 156.487 256.345C156.487 255.76 156.633 255.238 156.925 254.78C157.218 254.323 157.65 253.96 158.222 253.693C158.794 253.426 159.494 253.293 160.32 253.293C161.16 253.293 161.859 253.445 162.419 253.75C162.991 254.043 163.442 254.437 163.773 254.933C164.103 255.416 164.32 255.95 164.421 256.535L162.743 256.65C162.667 256.294 162.52 255.982 162.304 255.715C162.101 255.435 161.827 255.219 161.484 255.067C161.153 254.901 160.759 254.819 160.301 254.819C159.564 254.819 159.017 254.965 158.661 255.257C158.305 255.55 158.127 255.912 158.127 256.345C158.127 256.688 158.21 256.961 158.375 257.165C158.54 257.368 158.807 257.534 159.176 257.661C159.545 257.775 160.034 257.883 160.645 257.985C161.687 258.15 162.495 258.366 163.067 258.633C163.639 258.888 164.04 259.206 164.269 259.587C164.498 259.969 164.612 260.439 164.612 260.999C164.612 261.596 164.434 262.111 164.078 262.544C163.735 262.963 163.258 263.288 162.647 263.516C162.05 263.745 161.369 263.86 160.607 263.86ZM172.024 263.86C171.071 263.86 170.244 263.644 169.545 263.211C168.858 262.779 168.324 262.169 167.943 261.38C167.574 260.579 167.389 259.644 167.389 258.576C167.389 257.508 167.574 256.58 167.943 255.791C168.324 255.003 168.852 254.393 169.526 253.96C170.212 253.515 171.02 253.293 171.948 253.293C172.826 253.293 173.601 253.503 174.275 253.922C174.949 254.329 175.477 254.927 175.858 255.715C176.24 256.504 176.431 257.464 176.431 258.595V259.072H169.068C169.132 260.153 169.418 260.967 169.926 261.514C170.448 262.06 171.147 262.334 172.024 262.334C172.686 262.334 173.226 262.181 173.646 261.876C174.078 261.558 174.377 261.145 174.542 260.636L176.259 260.77C175.992 261.673 175.483 262.416 174.733 263.001C173.995 263.574 173.093 263.86 172.024 263.86ZM169.068 257.661H174.676C174.599 256.682 174.313 255.963 173.817 255.505C173.321 255.048 172.698 254.819 171.948 254.819C171.172 254.819 170.53 255.06 170.022 255.543C169.526 256.014 169.208 256.72 169.068 257.661ZM182.66 263.86C181.77 263.86 181.001 263.644 180.352 263.211C179.704 262.779 179.202 262.169 178.845 261.38C178.502 260.592 178.33 259.657 178.33 258.576C178.33 257.495 178.502 256.561 178.845 255.772C179.202 254.984 179.704 254.374 180.352 253.941C181.001 253.509 181.77 253.293 182.66 253.293C183.372 253.293 183.995 253.464 184.53 253.808C185.064 254.138 185.451 254.513 185.693 254.933V250.088H187.295V263.631H185.846L185.788 262.105C185.509 262.652 185.095 263.084 184.549 263.402C184.002 263.707 183.372 263.86 182.66 263.86ZM182.756 262.334C183.366 262.334 183.887 262.181 184.32 261.876C184.765 261.571 185.102 261.139 185.331 260.579C185.572 260.007 185.693 259.339 185.693 258.576C185.693 257.788 185.572 257.114 185.331 256.554C185.102 255.995 184.765 255.569 184.32 255.276C183.875 254.971 183.341 254.819 182.718 254.819C181.891 254.819 181.23 255.156 180.734 255.83C180.251 256.491 180.009 257.406 180.009 258.576C180.009 259.733 180.251 260.649 180.734 261.323C181.23 261.997 181.904 262.334 182.756 262.334Z" fill="white"/>
<path fill-rule="evenodd" clip-rule="evenodd" d="M359.5 250.924C359.891 251.314 359.891 251.947 359.5 252.338L348.5 263.338C348.11 263.728 347.477 263.728 347.086 263.338L342.086 258.338C341.696 257.947 341.696 257.314 342.086 256.924C342.477 256.533 343.11 256.533 343.5 256.924L347.793 261.217L358.086 250.924C358.477 250.533 359.11 250.533 359.5 250.924Z" fill="url(#paint10_linear_3602_285)"/>
</g>
<defs>
<filter id="filter0_d_3602_285" x="79" y="318" width="403.333" height="111.261" filterUnits="userSpaceOnUse" color-interpolation-filters="sRGB">
<feFlood flood-opacity="0" result="BackgroundImageFix"/>
<feColorMatrix in="SourceAlpha" type="matrix" values="0 0 0 0 0 0 0 0 0 0 0 0 0 0 0 0 0 0 127 0" result="hardAlpha"/>
<feOffset/>
<feGaussianBlur stdDeviation="15"/>
<feComposite in2="hardAlpha" operator="out"/>
<feColorMatrix type="matrix" values="0 0 0 0 1 0 0 0 0 1 0 0 0 0 1 0 0 0 0.08 0"/>
<feBlend mode="normal" in2="BackgroundImageFix" result="effect1_dropShadow_3602_285"/>
<feBlend mode="normal" in="SourceGraphic" in2="effect1_dropShadow_3602_285" result="shape"/>
</filter>
<filter id="filter1_d_3602_285" x="24" y="260" width="403.333" height="111.261" filterUnits="userSpaceOnUse" color-interpolation-filters="sRGB">
<feFlood flood-opacity="0" result="BackgroundImageFix"/>
<feColorMatrix in="SourceAlpha" type="matrix" values="0 0 0 0 0 0 0 0 0 0 0 0 0 0 0 0 0 0 127 0" result="hardAlpha"/>
<feOffset/>
<feGaussianBlur stdDeviation="15"/>
<feComposite in2="hardAlpha" operator="out"/>
<feColorMatrix type="matrix" values="0 0 0 0 1 0 0 0 0 1 0 0 0 0 1 0 0 0 0.08 0"/>
<feBlend mode="normal" in2="BackgroundImageFix" result="effect1_dropShadow_3602_285"/>
<feBlend mode="normal" in="SourceGraphic" in2="effect1_dropShadow_3602_285" result="shape"/>
</filter>
<filter id="filter2_d_3602_285" x="0" y="202" width="403.333" height="111.261" filterUnits="userSpaceOnUse" color-interpolation-filters="sRGB">
<feFlood flood-opacity="0" result="BackgroundImageFix"/>
<feColorMatrix in="SourceAlpha" type="matrix" values="0 0 0 0 0 0 0 0 0 0 0 0 0 0 0 0 0 0 127 0" result="hardAlpha"/>
<feOffset/>
<feGaussianBlur stdDeviation="15"/>
<feComposite in2="hardAlpha" operator="out"/>
<feColorMatrix type="matrix" values="0 0 0 0 1 0 0 0 0 1 0 0 0 0 1 0 0 0 0.08 0"/>
<feBlend mode="normal" in2="BackgroundImageFix" result="effect1_dropShadow_3602_285"/>
<feBlend mode="normal" in="SourceGraphic" in2="effect1_dropShadow_3602_285" result="shape"/>
</filter>
<linearGradient id="paint0_linear_3602_285" x1="592" y1="105" x2="592" y2="281" gradientUnits="userSpaceOnUse">
<stop stop-color="#171717"/>
<stop offset="1" stop-color="#1892EA"/>
</linearGradient>
<linearGradient id="paint1_linear_3602_285" x1="592.81" y1="63.2393" x2="592.81" y2="78.2163" gradientUnits="userSpaceOnUse">
<stop stop-color="white"/>
<stop offset="1" stop-color="#999999"/>
</linearGradient>
<linearGradient id="paint2_linear_3602_285" x1="583.303" y1="75.2063" x2="583.303" y2="84.2663" gradientUnits="userSpaceOnUse">
<stop stop-color="white"/>
<stop offset="1" stop-color="#999999"/>
</linearGradient>
<linearGradient id="paint3_linear_3602_285" x1="753.266" y1="269.266" x2="753.266" y2="279.266" gradientUnits="userSpaceOnUse">
<stop stop-color="white"/>
<stop offset="1" stop-color="#999999"/>
</linearGradient>
<linearGradient id="paint4_linear_3602_285" x1="753.266" y1="281.266" x2="753.266" y2="291.266" gradientUnits="userSpaceOnUse">
<stop stop-color="white"/>
<stop offset="1" stop-color="#999999"/>
</linearGradient>
<linearGradient id="paint5_linear_3602_285" x1="753.266" y1="273.266" x2="753.266" y2="287.266" gradientUnits="userSpaceOnUse">
<stop stop-color="white"/>
<stop offset="1" stop-color="#999999"/>
</linearGradient>
<linearGradient id="paint6_linear_3602_285" x1="109" y1="373.631" x2="452.333" y2="373.631" gradientUnits="userSpaceOnUse">
<stop stop-color="#070707"/>
<stop offset="1" stop-color="#0D0D0D"/>
</linearGradient>
<linearGradient id="paint7_linear_3602_285" x1="54" y1="315.631" x2="397.333" y2="315.631" gradientUnits="userSpaceOnUse">
<stop stop-color="#070707"/>
<stop offset="1" stop-color="#0D0D0D"/>
</linearGradient>
<linearGradient id="paint8_linear_3602_285" x1="374.793" y1="308.631" x2="374.793" y2="321.631" gradientUnits="userSpaceOnUse">
<stop stop-color="white"/>
<stop offset="1" stop-color="#999999"/>
</linearGradient>
<linearGradient id="paint9_linear_3602_285" x1="30" y1="257.631" x2="373.333" y2="257.631" gradientUnits="userSpaceOnUse">
<stop stop-color="#070707"/>
<stop offset="1" stop-color="#0D0D0D"/>
</linearGradient>
<linearGradient id="paint10_linear_3602_285" x1="350.793" y1="250.631" x2="350.793" y2="263.631" gradientUnits="userSpaceOnUse">
<stop stop-color="white"/>
<stop offset="1" stop-color="#999999"/>
</linearGradient>
</defs>
</svg>
